<svg width="174" height="64" viewBox="0 0 174 64" fill="none" xmlns="http://www.w3.org/2000/svg">
<path fill-rule="evenodd" clip-rule="evenodd" d="M29.6015 60.245C45.6084 60.245 58.5845 46.8135 58.5845 30.245C58.5845 13.6765 45.6084 0.244995 29.6015 0.244995C13.5946 0.244995 0.618408 13.6765 0.618408 30.245C0.618408 46.8135 13.5946 60.245 29.6015 60.245ZM33.0505 26.0122H30.4343C29.3244 26.0122 28.5244 25.7311 28.0344 25.169C27.5443 24.5924 27.2992 23.8357 27.2992 22.8987C27.2992 20.8231 28.8488 19.7853 31.9478 19.7853C34.8594 19.7853 37.0504 20.2177 38.5206 21.0826L37.2666 22.0339C36.2576 21.5727 34.4847 21.342 31.9478 21.342C30.7082 21.342 29.8722 21.479 29.4397 21.7528C29.0217 22.0267 28.8127 22.4087 28.8127 22.8987C28.8127 23.3888 28.928 23.7708 29.1587 24.0447C29.3893 24.3185 29.8145 24.4555 30.4343 24.4555H33.1153C35.0612 24.4555 36.8125 24.787 38.3693 25.45C39.9404 26.1131 41.2304 27.0212 42.2394 28.1743C43.2484 29.313 44.0196 30.6319 44.5529 32.131C45.0862 33.6156 45.3529 35.2084 45.3529 36.9092C45.3529 38.293 45.1583 39.6046 44.7691 40.8443C44.3799 42.0839 43.7889 43.2226 42.9962 44.2604C42.2178 45.2982 41.2737 46.1991 40.1638 46.963C39.0683 47.7126 37.7567 48.2963 36.2288 48.7143C34.7153 49.1468 33.0721 49.363 31.2992 49.363C28.5172 49.363 25.9083 48.9378 23.4723 48.0873C21.0508 47.2513 19.0328 46.0766 17.4184 44.5631L18.6724 43.6334C20.1427 44.9595 21.9805 45.9901 24.1858 46.7252C26.4056 47.4459 28.7767 47.8062 31.2992 47.8062C33.2739 47.8062 35.054 47.5252 36.6396 46.963C38.2395 46.3865 39.5512 45.6009 40.5746 44.6063C41.6124 43.6118 42.4052 42.4586 42.9529 41.1469C43.5151 39.8353 43.7961 38.4227 43.7961 36.9092C43.7961 34.9057 43.3926 33.0967 42.5854 31.4823C41.7782 29.8535 40.5458 28.5346 38.8882 27.5257C37.245 26.5167 35.2991 26.0122 33.0505 26.0122ZM30.4343 27.5689H32.8991C35.8252 27.5689 38.1098 28.4626 39.753 30.2499C41.4106 32.0373 42.2394 34.257 42.2394 36.9092C42.2394 39.6046 41.2809 41.8388 39.3638 43.6118C37.4468 45.3703 34.7585 46.2495 31.2992 46.2495C28.9929 46.2495 26.838 45.9324 24.8344 45.2982C22.8309 44.664 21.1661 43.7703 19.84 42.6172L21.0508 41.6442C22.2327 42.61 23.7174 43.3595 25.5047 43.8928C27.3065 44.4262 29.2379 44.6928 31.2992 44.6928C34.3405 44.6928 36.6612 43.9649 38.2611 42.5091C39.8755 41.0533 40.6827 39.1866 40.6827 36.9092C40.6827 34.6606 40.0052 32.8012 38.6503 31.331C37.3098 29.8607 35.3855 29.1256 32.8775 29.1256H30.4343C28.3299 29.1256 26.7515 28.5491 25.6993 27.3959C24.6471 26.2428 24.1209 24.7437 24.1209 22.8987C24.1209 21.0537 24.7696 19.5547 26.0668 18.4016C27.3785 17.2484 29.3388 16.6719 31.9478 16.6719C33.7784 16.6719 35.4792 16.8881 37.0504 17.3205C38.6215 17.7385 39.9188 18.3439 40.9422 19.1367L39.7098 20.088C37.908 18.8484 35.3207 18.2286 31.9478 18.2286C29.7713 18.2286 28.1785 18.661 27.1695 19.5259C26.175 20.3763 25.6777 21.5006 25.6777 22.8987C25.6777 24.3113 26.0452 25.4428 26.7803 26.2933C27.5299 27.1437 28.7479 27.5689 30.4343 27.5689ZM30.4343 30.6823H32.8126C34.9171 30.6823 36.4954 31.2661 37.5476 32.4337C38.5999 33.6012 39.126 35.093 39.126 36.9092C39.126 38.7542 38.4701 40.2533 37.1585 41.4064C35.8612 42.5595 33.9081 43.1361 31.2992 43.1361C29.4686 43.1361 27.7605 42.9271 26.175 42.5091C24.6038 42.0767 23.3066 41.4641 22.2832 40.6713L23.5156 39.72C25.3173 40.9596 27.9118 41.5794 31.2992 41.5794C33.4757 41.5794 35.0612 41.1542 36.0558 40.3037C37.0648 39.4389 37.5693 38.3074 37.5693 36.9092C37.5693 35.5111 37.1945 34.3868 36.445 33.5363C35.6954 32.6715 34.4775 32.2391 32.791 32.2391H30.4343C27.4794 32.2391 25.166 31.3598 23.4939 29.6013C21.8363 27.8284 21.0075 25.5942 21.0075 22.8987C21.0075 20.2033 21.966 17.9763 23.8831 16.2178C25.8002 14.4449 28.4884 13.5584 31.9478 13.5584C34.254 13.5584 36.4017 13.8755 38.3909 14.5098C40.3944 15.144 42.0592 16.0377 43.3853 17.1908L42.1746 18.1637C40.9926 17.198 39.508 16.4485 37.7206 15.9151C35.9333 15.3818 34.009 15.1152 31.9478 15.1152C28.9064 15.1152 26.5785 15.8431 24.9642 17.2989C23.3642 18.7547 22.5642 20.6213 22.5642 22.8987C22.5642 25.1618 23.2417 27.0284 24.5966 28.4986C25.9515 29.9544 27.8974 30.6823 30.4343 30.6823ZM30.4343 33.7958H32.8126C33.9225 33.7958 34.7225 34.0841 35.2126 34.6606C35.7026 35.2372 35.9477 35.9867 35.9477 36.9092C35.9477 38.9848 34.3982 40.0227 31.2992 40.0227C28.3731 40.0227 26.175 39.5902 24.7047 38.7254L25.9587 37.7741C26.9677 38.2353 28.7479 38.4659 31.2992 38.4659C32.5388 38.4659 33.3676 38.329 33.7856 38.0551C34.218 37.7813 34.4342 37.3993 34.4342 36.9092C34.4342 36.4336 34.3117 36.0588 34.0667 35.7849C33.836 35.4966 33.4036 35.3525 32.7694 35.3525H30.4343C28.4452 35.3525 26.6434 35.0282 25.029 34.3795C23.4291 33.7309 22.1102 32.8372 21.0724 31.6985C20.049 30.5598 19.2634 29.2409 18.7157 27.7419C18.1679 26.2428 17.8941 24.6284 17.8941 22.8987C17.8941 21.515 18.0887 20.2033 18.4778 18.9637C18.867 17.7241 19.4508 16.5854 20.2292 15.5476C21.0219 14.5098 21.966 13.6161 23.0615 12.8666C24.1714 12.1026 25.4831 11.5116 26.9966 11.0936C28.5244 10.6612 30.1749 10.445 31.9478 10.445C34.7297 10.445 37.3314 10.8702 39.753 11.7206C42.1746 12.5567 44.1925 13.7314 45.8069 15.2449L44.5529 16.1746C43.0826 14.8485 41.2449 13.8251 39.0395 13.1044C36.8342 12.3693 34.4702 12.0017 31.9478 12.0017C29.9731 12.0017 28.1857 12.29 26.5858 12.8666C25.0002 13.4287 23.6885 14.2071 22.6507 15.2016C21.6273 16.1962 20.8345 17.3493 20.2724 18.661C19.7247 19.9727 19.4508 21.3853 19.4508 22.8987C19.4508 24.9311 19.8616 26.7617 20.6832 28.3905C21.5048 30.0193 22.7588 31.331 24.4453 32.3255C26.1317 33.3057 28.1281 33.7958 30.4343 33.7958ZM74.8985 37.2984L75.5255 35.7417H80.8443L81.4713 37.2984H74.8985ZM73.6877 40.4118L74.2931 38.8551H82.0551L82.7254 40.4118H73.6877ZM72.477 43.5253L73.0824 41.9686H83.2875L83.9361 43.5253H72.477ZM59.8286 47.8062H58.1422L72.304 12.0017H73.9904L88.1306 47.8062H86.4658L73.1472 14.099L59.8286 47.8062ZM73.3418 17.7962L74.2283 19.7853L63.1583 47.8062H61.4934L73.3418 17.7962ZM75.0715 21.9042L75.8931 24.0447L66.5312 47.8062H64.8447L75.0715 21.9042ZM76.7147 26.1852L77.5363 28.3689L69.8608 47.8062H68.196L76.7147 26.1852ZM98.1844 47.8062H96.498L82.3578 12.0017H84.0226L98.1844 47.8062ZM80.6714 12.0017L94.8332 47.8062H93.1683L79.0065 12.0017H80.6714ZM77.3201 12.0017L91.4819 47.8062H89.7955L75.6553 12.0017H77.3201ZM137.849 29.104H139.406V47.8062H137.849V29.104ZM144.076 29.104H145.632V47.8062H144.076V29.104ZM140.962 29.104H142.519V47.8062H140.962V29.104ZM136.292 29.104V47.8062C133.553 48.8441 130.714 49.363 127.773 49.363C125.222 49.363 122.779 48.8945 120.444 47.9576C118.109 47.0207 116.055 45.7234 114.282 44.0658C112.509 42.3938 111.089 40.3326 110.022 37.8822C108.97 35.4174 108.444 32.758 108.444 29.904C108.444 27.2662 108.956 24.751 109.979 22.3582C111.017 19.9511 112.401 17.8827 114.13 16.153C115.875 14.4089 117.943 13.0251 120.336 12.0017C122.743 10.9639 125.265 10.445 127.903 10.445C131.189 10.445 134.245 11.2089 137.07 12.7368C139.896 14.2647 142.202 16.3403 143.989 18.9637L142.692 19.8069C141.049 17.3998 138.923 15.4971 136.314 14.099C133.719 12.7008 130.916 12.0017 127.903 12.0017C125.482 12.0017 123.161 12.4774 120.941 13.4287C118.736 14.3656 116.833 15.6341 115.233 17.234C113.633 18.834 112.357 20.7438 111.406 22.9636C110.469 25.169 110.001 27.4824 110.001 29.904C110.001 32.5129 110.484 34.9489 111.449 37.2119C112.43 39.4749 113.727 41.3704 115.341 42.8983C116.97 44.4262 118.858 45.6297 121.006 46.509C123.154 47.3738 125.388 47.8062 127.708 47.8062C130.144 47.8062 132.487 47.4243 134.735 46.6603V45.1685C132.588 45.8892 130.332 46.2495 127.968 46.2495C126.253 46.2495 124.581 46.0117 122.952 45.536C121.337 45.046 119.838 44.3325 118.455 43.3955C117.085 42.4442 115.882 41.3199 114.844 40.0227C113.821 38.711 113.013 37.1903 112.422 35.4606C111.846 33.7165 111.558 31.8643 111.558 29.904C111.558 26.9491 112.285 24.2176 113.741 21.7096C115.211 19.2015 117.201 17.2196 119.709 15.7638C122.217 14.2936 124.948 13.5584 127.903 13.5584C130.671 13.5584 133.243 14.2071 135.622 15.5043C138 16.7872 139.939 18.5313 141.438 20.7366L140.141 21.5799C138.786 19.5907 137.027 18.0196 134.865 16.8665C132.717 15.6989 130.397 15.1152 127.903 15.1152C125.9 15.1152 123.982 15.5043 122.152 16.2827C120.321 17.0611 118.743 18.1133 117.417 19.4394C116.105 20.7511 115.06 22.3222 114.282 24.1528C113.503 25.9834 113.114 27.9004 113.114 29.904C113.114 31.7057 113.374 33.3994 113.893 34.9849C114.426 36.5561 115.154 37.9326 116.076 39.1146C117.013 40.2821 118.102 41.2911 119.341 42.1415C120.581 42.9775 121.928 43.6118 123.384 44.0442C124.854 44.4766 126.361 44.6928 127.903 44.6928C130.296 44.6928 132.573 44.2892 134.735 43.482V41.9253C132.602 42.7469 130.375 43.1577 128.054 43.1577C126.296 43.1577 124.617 42.8622 123.017 42.2712C121.417 41.6659 119.99 40.8154 118.736 39.72C117.496 38.6245 116.509 37.2263 115.774 35.5255C115.039 33.8246 114.671 31.9508 114.671 29.904C114.671 27.5112 115.262 25.2987 116.444 23.2663C117.626 21.2339 119.233 19.6268 121.265 18.4448C123.298 17.2628 125.51 16.6719 127.903 16.6719C130.137 16.6719 132.213 17.1908 134.13 18.2286C136.061 19.2664 137.633 20.679 138.843 22.4663L137.546 23.3095C136.479 21.7528 135.096 20.5204 133.395 19.6123C131.708 18.6898 129.878 18.2286 127.903 18.2286C125.784 18.2286 123.831 18.7547 122.044 19.8069C120.256 20.8447 118.837 22.2573 117.784 24.0447C116.747 25.832 116.228 27.7851 116.228 29.904C116.228 31.3742 116.437 32.7436 116.855 34.012C117.273 35.2804 117.849 36.3759 118.584 37.2984C119.319 38.2209 120.177 39.0065 121.157 39.6551C122.152 40.3037 123.218 40.7938 124.357 41.1253C125.496 41.4424 126.678 41.601 127.903 41.601C130.339 41.601 132.616 41.1181 134.735 40.1524V38.6605C132.689 39.5686 130.476 40.0227 128.098 40.0227C126.728 40.0227 125.438 39.8137 124.227 39.3956C123.017 38.9776 121.921 38.365 120.941 37.5578C119.975 36.7507 119.204 35.6912 118.628 34.3795C118.065 33.0535 117.784 31.5616 117.784 29.904C117.784 28.5346 118.051 27.2302 118.584 25.9906C119.118 24.7365 119.838 23.6555 120.746 22.7474C121.655 21.8393 122.728 21.1186 123.968 20.5853C125.222 20.052 126.534 19.7853 127.903 19.7853C129.618 19.7853 131.211 20.1889 132.681 20.9961C134.152 21.7889 135.348 22.8699 136.27 24.2393L134.995 25.0825C134.216 23.9294 133.2 23.0213 131.946 22.3582C130.707 21.6808 129.359 21.342 127.903 21.342C125.539 21.342 123.521 22.178 121.849 23.8501C120.177 25.5221 119.341 27.5401 119.341 29.904C119.341 31.3598 119.579 32.6499 120.055 33.7742C120.53 34.884 121.179 35.7777 122.001 36.4552C122.837 37.1182 123.759 37.6227 124.768 37.9687C125.791 38.3002 126.887 38.4659 128.054 38.4659C130.447 38.4659 132.674 37.9687 134.735 36.9741V29.104H136.292ZM171.641 12.0017H173.198V47.8062H171.641V12.0017ZM168.527 12.0017H170.084V47.8062H168.527V12.0017ZM165.414 12.0017H166.971V47.8062H165.414V12.0017ZM162.301 12.0017H163.857V47.8062H162.301V12.0017ZM60.8104 60.833C60.7944 61.065 60.6704 61.225 60.4384 61.313C60.2144 61.401 59.8064 61.445 59.2144 61.445C58.6224 61.445 58.1264 61.393 57.7264 61.289C57.3344 61.177 57.1384 61.037 57.1384 60.869C57.1384 60.677 57.4944 59.453 58.2064 57.197C58.9184 54.933 59.3264 53.629 59.4304 53.285C59.4704 53.181 59.7904 53.097 60.3904 53.033C60.9984 52.961 61.6464 52.925 62.3344 52.925C63.0304 52.925 63.4144 53.045 63.4864 53.285C64.9984 58.309 65.7544 60.861 65.7544 60.941C65.7544 61.021 65.7064 61.101 65.6104 61.181C65.3864 61.357 64.9424 61.445 64.2784 61.445C62.8624 61.445 62.1384 61.277 62.1064 60.941L62.0224 60.161H60.8704L60.8104 60.833ZM61.7704 57.881L61.5904 55.721H61.3264L61.1224 57.881H61.7704ZM67.9039 61.241C67.7119 61.153 67.5039 61.021 67.2799 60.845C67.0639 60.669 66.8839 60.461 66.7399 60.221C66.4039 59.645 66.2359 58.893 66.2359 57.965C66.2359 57.389 66.3279 56.877 66.5119 56.429C66.6959 55.973 66.9199 55.621 67.1839 55.373C67.4479 55.125 67.7519 54.921 68.0959 54.761C68.6479 54.505 69.1999 54.377 69.7519 54.377C70.6799 54.377 71.3239 54.449 71.6839 54.593C72.0519 54.737 72.2359 54.981 72.2359 55.325C72.2359 55.669 72.1719 56.037 72.0439 56.429C71.9239 56.813 71.7639 57.005 71.5639 57.005C71.4999 57.005 71.3039 56.937 70.9759 56.801C70.6559 56.665 70.3759 56.597 70.1359 56.597C69.9039 56.597 69.7239 56.693 69.5959 56.885C69.4759 57.069 69.4159 57.433 69.4159 57.977C69.4159 58.513 69.4719 58.881 69.5839 59.081C69.6959 59.273 69.8679 59.369 70.0999 59.369C70.3399 59.369 70.6359 59.289 70.9879 59.129C71.3399 58.969 71.5359 58.889 71.5759 58.889C71.7279 58.889 71.8719 59.069 72.0079 59.429C72.1519 59.789 72.2239 60.109 72.2239 60.389C72.2239 60.821 71.9999 61.125 71.5519 61.301C71.1039 61.469 70.4959 61.553 69.7279 61.553C68.9679 61.553 68.3599 61.449 67.9039 61.241ZM78.1496 61.337C78.0056 61.473 77.6776 61.541 77.1656 61.541C76.6536 61.541 76.2296 61.509 75.8936 61.445C75.5576 61.373 75.2376 61.237 74.9336 61.037C74.3496 60.645 74.0576 59.829 74.0576 58.589V56.717H73.4576C73.3696 56.717 73.2936 56.625 73.2296 56.441C73.1656 56.257 73.1336 56.005 73.1336 55.685C73.1336 55.365 73.1816 55.085 73.2776 54.845C73.3816 54.597 73.5136 54.473 73.6736 54.473H74.0576V53.021C74.0576 52.773 74.2976 52.573 74.7776 52.421C75.2656 52.269 75.7416 52.193 76.2056 52.193C76.9336 52.193 77.2976 52.373 77.2976 52.733V54.473H78.1856C78.3936 54.473 78.4976 54.773 78.4976 55.373C78.4976 55.765 78.4496 56.089 78.3536 56.345C78.2656 56.593 78.1496 56.717 78.0056 56.717H77.2976V58.913C77.2976 59.129 77.3896 59.285 77.5736 59.381C77.7576 59.469 77.9176 59.513 78.0536 59.513C78.1976 59.513 78.2856 59.581 78.3176 59.717C78.3496 59.853 78.3656 60.057 78.3656 60.329C78.3656 60.865 78.2936 61.201 78.1496 61.337ZM83.0026 55.241V61.157C83.0026 61.245 82.7706 61.317 82.3066 61.373C81.8506 61.421 81.3786 61.445 80.8906 61.445C80.4106 61.445 80.0986 61.425 79.9546 61.385C79.8186 61.337 79.7506 61.261 79.7506 61.157V55.457C79.7506 55.281 79.9746 55.109 80.4226 54.941C80.8786 54.765 81.3746 54.677 81.9106 54.677C82.6386 54.677 83.0026 54.865 83.0026 55.241ZM81.3706 52.085C81.8986 52.085 82.3106 52.165 82.6066 52.325C82.9106 52.477 83.0626 52.757 83.0626 53.165C83.0626 53.885 82.5026 54.245 81.3826 54.245C80.2626 54.245 79.7026 53.885 79.7026 53.165C79.7026 52.445 80.2586 52.085 81.3706 52.085ZM84.0179 55.337C84.0179 55.257 84.1339 55.153 84.3659 55.025C84.5979 54.889 84.9139 54.765 85.3139 54.653C85.7139 54.541 86.1059 54.485 86.4899 54.485C87.2659 54.485 87.6659 54.673 87.6899 55.049L87.9899 58.865H88.1459L88.4099 55.241C88.4259 55.041 88.7019 54.865 89.2379 54.713C89.7739 54.561 90.2459 54.485 90.6539 54.485C91.0619 54.485 91.3659 54.521 91.5659 54.593C91.7739 54.665 91.9059 54.741 91.9619 54.821C92.0179 54.893 92.0459 54.957 92.0459 55.013C92.0459 55.069 91.8739 55.481 91.5299 56.249C91.1939 57.017 90.5179 58.653 89.5019 61.157C89.4219 61.349 88.7699 61.445 87.5459 61.445C87.1619 61.445 86.9099 61.425 86.7899 61.385C86.6699 61.337 86.5899 61.261 86.5499 61.157C85.9979 59.765 85.4379 58.457 84.8699 57.233C84.3019 56.001 84.0179 55.369 84.0179 55.337ZM96.1585 58.733C96.1585 59.253 96.4065 59.513 96.9025 59.513C97.1905 59.513 97.5665 59.417 98.0305 59.225C98.4945 59.025 98.7385 58.925 98.7625 58.925C98.9145 58.925 99.1145 59.153 99.3625 59.609C99.6105 60.065 99.7345 60.401 99.7345 60.617C99.7345 60.929 99.4145 61.165 98.7745 61.325C98.1345 61.485 97.5065 61.565 96.8905 61.565C96.2825 61.565 95.7705 61.517 95.3545 61.421C94.9465 61.325 94.6105 61.205 94.3465 61.061C94.0905 60.909 93.8625 60.725 93.6625 60.509C93.4705 60.293 93.3265 60.089 93.2305 59.897C93.1345 59.697 93.0585 59.477 93.0025 59.237C92.9225 58.885 92.8825 58.521 92.8825 58.145C92.8825 56.689 93.2625 55.685 94.0225 55.133C94.3985 54.853 94.8185 54.657 95.2825 54.545C95.7465 54.433 96.2945 54.377 96.9265 54.377C98.9505 54.377 99.9625 55.081 99.9625 56.489C99.9625 57.985 98.8265 58.733 96.5545 58.733H96.1585ZM96.1345 56.981V57.773C96.3665 57.773 96.5545 57.681 96.6985 57.497C96.8505 57.313 96.9265 57.089 96.9265 56.825C96.9265 56.345 96.8025 56.105 96.5545 56.105C96.2745 56.105 96.1345 56.397 96.1345 56.981ZM110.502 60.941C110.262 61.117 109.926 61.265 109.494 61.385C109.07 61.497 108.518 61.553 107.838 61.553C107.166 61.553 106.526 61.497 105.918 61.385C105.31 61.273 104.874 61.149 104.61 61.013C104.346 60.877 104.214 60.745 104.214 60.617C104.214 60.169 104.278 59.705 104.406 59.225C104.534 58.737 104.686 58.493 104.862 58.493C104.894 58.493 105.226 58.601 105.858 58.817C106.49 59.033 106.966 59.141 107.286 59.141C107.606 59.141 107.814 59.109 107.91 59.045C108.006 58.973 108.054 58.873 108.054 58.745C108.054 58.617 107.966 58.505 107.79 58.409C107.614 58.305 107.394 58.217 107.13 58.145C106.866 58.065 106.578 57.953 106.266 57.809C105.962 57.665 105.678 57.505 105.414 57.329C105.15 57.153 104.93 56.905 104.754 56.585C104.578 56.257 104.49 55.885 104.49 55.469C104.49 53.693 105.55 52.805 107.67 52.805C108.462 52.805 109.146 52.857 109.722 52.961C110.298 53.057 110.702 53.169 110.934 53.297C111.174 53.417 111.294 53.537 111.294 53.657C111.294 54.073 111.194 54.521 110.994 55.001C110.802 55.481 110.614 55.721 110.43 55.721C110.398 55.721 110.294 55.685 110.118 55.613C109.59 55.381 109.15 55.265 108.798 55.265C108.454 55.265 108.218 55.297 108.09 55.361C107.97 55.425 107.91 55.525 107.91 55.661C107.91 55.789 107.998 55.897 108.174 55.985C108.35 56.065 108.566 56.141 108.822 56.213C109.086 56.277 109.37 56.381 109.674 56.525C109.986 56.661 110.274 56.825 110.538 57.017C110.802 57.201 111.022 57.465 111.198 57.809C111.374 58.153 111.462 58.553 111.462 59.009C111.462 59.489 111.338 59.925 111.09 60.317C110.938 60.557 110.742 60.765 110.502 60.941ZM116.361 61.553C115.761 61.553 115.245 61.501 114.813 61.397C114.381 61.293 113.989 61.109 113.637 60.845C112.909 60.317 112.545 59.333 112.545 57.893C112.545 56.613 112.917 55.697 113.661 55.145C114.357 54.633 115.257 54.377 116.361 54.377C116.833 54.377 117.237 54.401 117.573 54.449C117.909 54.489 118.249 54.581 118.593 54.725C118.945 54.869 119.225 55.065 119.433 55.313C119.649 55.561 119.825 55.905 119.961 56.345C120.097 56.777 120.165 57.293 120.165 57.893C120.165 59.109 119.821 60.025 119.133 60.641C118.445 61.249 117.521 61.553 116.361 61.553ZM115.941 59.213C115.997 59.501 116.053 59.673 116.109 59.729C116.173 59.785 116.253 59.813 116.349 59.813C116.453 59.813 116.533 59.785 116.589 59.729C116.653 59.673 116.709 59.501 116.757 59.213C116.813 58.925 116.841 58.565 116.841 58.133C116.841 57.693 116.829 57.357 116.805 57.125C116.789 56.885 116.765 56.701 116.733 56.573C116.709 56.445 116.673 56.345 116.625 56.273C116.553 56.169 116.465 56.117 116.361 56.117C116.265 56.117 116.185 56.149 116.121 56.213C116.057 56.269 115.997 56.445 115.941 56.741C115.885 57.029 115.857 57.441 115.857 57.977C115.857 58.513 115.885 58.925 115.941 59.213ZM124.6 52.637V61.157C124.6 61.245 124.372 61.317 123.916 61.373C123.46 61.421 122.988 61.445 122.5 61.445C122.02 61.445 121.708 61.425 121.564 61.385C121.428 61.337 121.36 61.261 121.36 61.157V52.853C121.36 52.677 121.584 52.505 122.032 52.337C122.488 52.169 122.976 52.085 123.496 52.085C124.232 52.085 124.6 52.269 124.6 52.637ZM129.218 55.241V61.157C129.218 61.245 128.986 61.317 128.522 61.373C128.066 61.421 127.594 61.445 127.106 61.445C126.626 61.445 126.314 61.425 126.17 61.385C126.034 61.337 125.966 61.261 125.966 61.157V55.457C125.966 55.281 126.19 55.109 126.638 54.941C127.094 54.765 127.59 54.677 128.126 54.677C128.854 54.677 129.218 54.865 129.218 55.241ZM127.586 52.085C128.114 52.085 128.526 52.165 128.822 52.325C129.126 52.477 129.278 52.757 129.278 53.165C129.278 53.885 128.718 54.245 127.598 54.245C126.478 54.245 125.918 53.885 125.918 53.165C125.918 52.445 126.474 52.085 127.586 52.085ZM132.849 61.553C132.553 61.553 132.277 61.509 132.021 61.421C131.765 61.333 131.553 61.225 131.385 61.097C131.225 60.969 131.085 60.797 130.965 60.581C130.845 60.365 130.753 60.161 130.689 59.969C130.625 59.769 130.577 59.525 130.545 59.237C130.497 58.813 130.473 58.329 130.473 57.785C130.473 56.673 130.677 55.829 131.085 55.253C131.493 54.669 132.053 54.377 132.765 54.377C133.493 54.377 134.021 54.549 134.349 54.893C134.421 54.973 134.477 55.069 134.517 55.181H134.613L134.469 54.353V52.853C134.469 52.677 134.693 52.505 135.141 52.337C135.589 52.169 136.073 52.085 136.593 52.085C137.137 52.085 137.485 52.189 137.637 52.397C137.693 52.477 137.721 52.557 137.721 52.637V61.157C137.721 61.245 137.497 61.317 137.049 61.373C136.609 61.421 136.181 61.445 135.765 61.445C135.357 61.445 135.093 61.433 134.973 61.409C134.861 61.377 134.789 61.345 134.757 61.313C134.733 61.281 134.717 61.229 134.709 61.157L134.613 60.473H134.517C134.445 60.753 134.301 60.989 134.085 61.181C133.813 61.429 133.401 61.553 132.849 61.553ZM134.193 59.801C134.321 59.801 134.417 59.721 134.481 59.561V56.357C134.481 56.277 134.437 56.217 134.349 56.177C134.269 56.129 134.197 56.105 134.133 56.105C133.861 56.105 133.725 56.729 133.725 57.977C133.725 58.641 133.761 59.113 133.833 59.393C133.913 59.665 134.033 59.801 134.193 59.801ZM141.322 61.553C140.594 61.553 140.022 61.381 139.606 61.037C139.438 60.893 139.29 60.681 139.162 60.401C139.042 60.121 138.982 59.793 138.982 59.417C138.982 59.041 139.07 58.713 139.246 58.433C139.43 58.153 139.65 57.937 139.906 57.785C140.162 57.633 140.462 57.509 140.806 57.413C141.326 57.277 141.898 57.209 142.522 57.209H142.918C142.918 56.881 142.806 56.649 142.582 56.513C142.486 56.457 142.338 56.429 142.138 56.429C141.946 56.429 141.71 56.481 141.43 56.585C141.158 56.689 140.93 56.797 140.746 56.909C140.562 57.013 140.438 57.065 140.374 57.065C140.23 57.065 140.034 56.877 139.786 56.501C139.538 56.117 139.414 55.769 139.414 55.457C139.414 55.353 139.562 55.217 139.858 55.049C140.154 54.881 140.57 54.729 141.106 54.593C141.65 54.449 142.178 54.377 142.69 54.377C143.202 54.377 143.642 54.421 144.01 54.509C144.386 54.589 144.69 54.689 144.922 54.809C145.162 54.929 145.362 55.089 145.522 55.289C145.69 55.489 145.814 55.669 145.894 55.829C145.982 55.989 146.046 56.197 146.086 56.453C146.142 56.749 146.17 57.113 146.17 57.545V61.157C146.17 61.245 145.954 61.317 145.522 61.373C145.098 61.421 144.674 61.445 144.25 61.445C143.834 61.445 143.562 61.433 143.434 61.409C143.314 61.385 143.242 61.357 143.218 61.325C143.194 61.293 143.174 61.237 143.158 61.157L143.062 60.473H142.966C142.766 61.193 142.218 61.553 141.322 61.553ZM142.93 59.561V58.157C142.722 58.157 142.554 58.245 142.426 58.421C142.298 58.597 142.234 58.797 142.234 59.021C142.234 59.549 142.354 59.813 142.594 59.813C142.698 59.813 142.778 59.789 142.834 59.741C142.898 59.685 142.93 59.625 142.93 59.561ZM150.731 57.653V61.157C150.731 61.245 150.503 61.317 150.047 61.373C149.599 61.421 149.131 61.445 148.643 61.445C148.163 61.445 147.851 61.425 147.707 61.385C147.563 61.337 147.491 61.261 147.491 61.157V55.241C147.491 55.089 147.711 54.925 148.151 54.749C148.599 54.573 149.083 54.485 149.603 54.485C150.131 54.485 150.427 54.629 150.491 54.917L150.611 55.469H150.695C150.807 55.165 151.075 54.909 151.499 54.701C151.923 54.485 152.347 54.377 152.771 54.377C153.195 54.377 153.491 54.445 153.659 54.581C153.835 54.717 153.923 54.893 153.923 55.109C153.923 55.317 153.907 55.585 153.875 55.913C153.843 56.241 153.763 56.597 153.635 56.981C153.515 57.365 153.355 57.557 153.155 57.557C153.075 57.557 152.823 57.497 152.399 57.377C151.975 57.257 151.623 57.197 151.343 57.197C151.071 57.197 150.899 57.237 150.827 57.317C150.763 57.397 150.731 57.509 150.731 57.653ZM158.302 55.241V61.157C158.302 61.245 158.07 61.317 157.606 61.373C157.15 61.421 156.678 61.445 156.19 61.445C155.71 61.445 155.398 61.425 155.254 61.385C155.118 61.337 155.05 61.261 155.05 61.157V55.457C155.05 55.281 155.274 55.109 155.722 54.941C156.178 54.765 156.674 54.677 157.21 54.677C157.938 54.677 158.302 54.865 158.302 55.241ZM156.67 52.085C157.198 52.085 157.61 52.165 157.906 52.325C158.21 52.477 158.362 52.757 158.362 53.165C158.362 53.885 157.802 54.245 156.682 54.245C155.562 54.245 155.002 53.885 155.002 53.165C155.002 52.445 155.558 52.085 156.67 52.085ZM164.393 61.337C164.249 61.473 163.921 61.541 163.409 61.541C162.897 61.541 162.473 61.509 162.137 61.445C161.801 61.373 161.481 61.237 161.177 61.037C160.593 60.645 160.301 59.829 160.301 58.589V56.717H159.701C159.613 56.717 159.537 56.625 159.473 56.441C159.409 56.257 159.377 56.005 159.377 55.685C159.377 55.365 159.425 55.085 159.521 54.845C159.625 54.597 159.757 54.473 159.917 54.473H160.301V53.021C160.301 52.773 160.541 52.573 161.021 52.421C161.509 52.269 161.985 52.193 162.449 52.193C163.177 52.193 163.541 52.373 163.541 52.733V54.473H164.429C164.637 54.473 164.741 54.773 164.741 55.373C164.741 55.765 164.693 56.089 164.597 56.345C164.509 56.593 164.393 56.717 164.249 56.717H163.541V58.913C163.541 59.129 163.633 59.285 163.817 59.381C164.001 59.469 164.161 59.513 164.297 59.513C164.441 59.513 164.529 59.581 164.561 59.717C164.593 59.853 164.609 60.057 164.609 60.329C164.609 60.865 164.537 61.201 164.393 61.337ZM169.991 60.665V59.957H169.895C169.855 59.997 169.795 60.049 169.715 60.113C169.635 60.177 169.447 60.261 169.151 60.365C168.855 60.469 168.523 60.521 168.155 60.521C167.795 60.521 167.475 60.465 167.195 60.353C166.923 60.233 166.707 60.077 166.547 59.885C166.387 59.685 166.263 59.421 166.175 59.093C166.023 58.573 165.947 57.837 165.947 56.885V55.229C165.947 55.061 166.183 54.897 166.655 54.737C167.127 54.569 167.623 54.485 168.143 54.485C168.839 54.485 169.187 54.665 169.187 55.025V56.537C169.187 58.137 169.315 58.937 169.571 58.937C169.723 58.937 169.799 58.829 169.799 58.613V55.229C169.799 55.061 170.051 54.897 170.555 54.737C171.059 54.569 171.599 54.485 172.175 54.485C172.751 54.485 173.039 54.641 173.039 54.953V60.629C173.039 62.413 171.831 63.305 169.415 63.305C168.143 63.305 167.279 63.181 166.823 62.933C166.623 62.821 166.523 62.705 166.523 62.585C166.523 62.393 166.603 62.069 166.763 61.613C166.923 61.165 167.071 60.941 167.207 60.941C167.239 60.941 167.351 60.965 167.543 61.013C168.135 61.173 168.627 61.253 169.019 61.253C169.419 61.253 169.679 61.209 169.799 61.121C169.927 61.033 169.991 60.881 169.991 60.665Z" fill="#0891B2"/>
</svg>
