<svg width="309" height="197" viewBox="0 0 309 197" fill="none" xmlns="http://www.w3.org/2000/svg">
<g clip-path="url(#clip0_0_1)">
<path d="M308 97.5C308 124.24 290.997 148.591 263.21 166.307C235.435 184.015 197.003 195 154.5 195C111.997 195 73.5649 184.015 45.7896 166.307C18.0026 148.591 1 124.24 1 97.5C1 70.7596 18.0026 46.4085 45.7896 28.6932C73.5649 10.9853 111.997 0 154.5 0C197.003 0 235.435 10.9853 263.21 28.6932C290.997 46.4085 308 70.7596 308 97.5Z" fill="#22C55E" stroke="#FDE047" stroke-width="2"/>
<path d="M290.966 95.1323C291.355 117.419 276.594 138.033 252.043 153.298C227.512 168.551 193.362 178.348 155.409 179.011C117.457 179.673 82.9851 171.073 57.937 156.686C32.8682 142.287 17.3966 122.201 17.0075 99.9143C16.6185 77.627 31.3797 57.0132 55.9307 41.7481C80.4615 26.4957 114.612 16.6982 152.565 16.0357C190.517 15.3733 224.989 23.973 250.037 38.36C275.105 52.759 290.577 72.8451 290.966 95.1323Z" fill="#CC1A1A" stroke="#FDE047" stroke-width="2"/>
<g filter="url(#filter0_d_0_1)">
<path d="M55.619 85.0173C53.8626 85.6528 52.2313 86.1892 50.7251 86.6264C49.1935 87.0333 47.742 87.2252 46.3707 87.202C44.9993 87.1789 43.6984 86.8981 42.4679 86.3595C41.2432 85.7658 40.0723 84.8013 38.9553 83.4661C36.7974 80.8866 36.0871 78.0173 36.8243 74.8583C37.5929 71.6746 39.8216 68.6201 43.5105 65.6949C44.8548 64.629 46.1814 63.7285 47.4904 62.9933C48.7994 62.2582 50.0254 61.7656 51.1682 61.5156C52.3169 61.2105 53.3796 61.1755 54.3563 61.4106C55.3076 61.6153 56.1132 62.1122 56.7733 62.9012C57.4334 63.6902 57.817 64.5218 57.9242 65.3958C58.0061 66.2396 57.9463 67.0694 57.7449 67.8853C56.7017 68.0058 55.4748 68.3729 54.0642 68.9867C52.6283 69.5701 51.2225 70.4071 49.847 71.4979C48.4402 72.6134 47.5736 73.6287 47.2471 74.5438C46.8953 75.4285 46.9605 76.1592 47.4429 76.7358C47.8237 77.191 48.3443 77.4092 49.0045 77.3904C49.6394 77.3412 50.4648 77.1158 51.4807 76.7141L54.6134 75.5171C58.3137 74.0974 61.5419 73.4809 64.2982 73.6677C67.0604 73.7994 69.457 75.0791 71.4879 77.5069C73.6458 80.0864 74.3503 83.0108 73.6013 86.28C72.8269 89.519 70.4076 92.7497 66.3436 95.9723C64.9055 97.1127 63.4597 98.0572 62.0061 98.806C60.6092 99.5604 59.2641 100.097 57.9708 100.416C56.6834 100.679 55.5075 100.703 54.4429 100.488C53.3842 100.217 52.4994 99.6562 51.7885 98.8064C51.0523 97.9264 50.6961 96.9722 50.7198 95.9438C50.7181 94.8851 50.8902 93.941 51.2362 93.1114C52.6701 93.0849 54.2153 92.8186 55.872 92.3126C57.5599 91.7818 59.1542 90.9215 60.6547 89.7316C62.1866 88.5169 63.0747 87.434 63.3191 86.4831C63.5636 85.5321 63.4319 84.7531 62.9242 84.1462C62.4164 83.5392 61.7855 83.2823 61.0315 83.3755C60.252 83.4383 59.282 83.6774 58.1216 84.0929L55.619 85.0173Z" fill="#FDE047"/>
<path d="M110.948 34.3427C111.526 33.8111 112.442 33.2236 113.697 32.5804C114.991 31.9283 116.325 31.448 117.699 31.1396C119.662 30.699 121.457 30.5976 123.083 30.8354C124.74 31.0263 125.923 31.665 126.632 32.7517C127.804 34.5785 129.111 36.7166 130.552 39.166C131.994 41.6154 133.458 44.1603 134.945 46.8006C136.422 49.4028 137.876 51.9902 139.305 54.563C140.725 57.0976 141.976 59.3488 143.057 61.3166C142.711 61.9569 142.102 62.5355 141.231 63.0524C140.37 63.6075 139.291 64.0305 137.995 64.3213C137.053 64.5328 136.23 64.6371 135.526 64.6342C134.862 64.6225 134.279 64.5124 133.775 64.3039C133.311 64.0865 132.883 63.7606 132.492 63.3259C132.14 62.8824 131.79 62.3582 131.442 61.7532L129.456 58.0394L118.795 60.432C118.749 61.6479 118.713 62.902 118.685 64.1943C118.657 65.4866 118.62 66.7407 118.574 67.9566C118.069 68.2709 117.516 68.5558 116.914 68.8114C116.361 69.0963 115.653 69.3357 114.789 69.5295C112.786 69.979 111.218 69.9893 110.084 69.5606C108.981 69.0848 108.291 68.2551 108.013 67.0715C107.888 66.537 107.842 65.9848 107.873 65.415C107.905 64.8453 107.934 64.1756 107.961 63.4061C107.994 62.3135 108.067 60.9508 108.181 59.3178C108.334 57.676 108.499 55.9108 108.676 54.0223C108.845 52.0956 109.044 50.1219 109.273 48.1012C109.502 46.0805 109.719 44.1832 109.923 42.4093C110.119 40.5971 110.3 38.9891 110.467 37.5852C110.674 36.1725 110.834 35.0916 110.948 34.3427ZM119.746 40.1444C119.572 41.8714 119.364 43.8069 119.123 45.951C118.911 48.048 118.768 50.17 118.692 52.317L125.996 50.6778C124.963 48.7394 123.924 46.8627 122.879 45.0477C121.864 43.1856 120.938 41.5248 120.1 40.0651L119.746 40.1444Z" fill="#FDE047"/>
<path d="M212.265 64.5366C211.98 65.7201 211.553 66.5497 210.984 67.0253C210.415 67.501 209.596 67.9001 208.526 68.2229C207.904 68.4048 207.144 68.5558 206.247 68.6759C205.36 68.7579 204.403 68.784 203.376 68.7544C202.341 68.7628 201.261 68.7008 200.135 68.5683C199.049 68.4446 197.977 68.2636 196.918 68.0254C194.095 67.3901 191.535 66.4319 189.239 65.1506C186.952 63.8312 185.067 62.2196 183.582 60.316C182.145 58.383 181.169 56.1711 180.652 53.6803C180.135 51.1896 180.234 48.4552 180.95 45.4773C181.703 42.3467 182.928 39.7448 184.625 37.6718C186.362 35.6076 188.354 34.0237 190.604 32.9201C192.902 31.7871 195.358 31.1124 197.972 30.8959C200.626 30.6881 203.247 30.8755 205.835 31.4578C209.56 32.296 212.359 33.5495 214.231 35.2183C216.151 36.8578 216.886 38.6127 216.436 40.4834C216.197 41.4761 215.737 42.278 215.052 42.8887C214.368 43.4993 213.642 43.9397 212.875 44.2096C212.032 43.4164 210.93 42.5849 209.569 41.7151C208.256 40.8159 206.678 40.159 204.835 39.7443C201.541 39.0032 198.693 39.3283 196.291 40.7195C193.93 42.1199 192.359 44.4426 191.579 47.6878C191.156 49.444 191.044 51.0285 191.241 52.4413C191.487 53.8247 191.96 55.0378 192.66 56.0807C193.369 57.0854 194.262 57.93 195.337 58.6147C196.421 59.2612 197.63 59.7344 198.963 60.0344C199.826 60.2285 200.609 60.3242 201.312 60.3215C202.016 60.3188 202.567 60.2617 202.966 60.1502L204.26 54.767L197.967 53.3509C197.832 52.878 197.73 52.2715 197.66 51.5313C197.629 50.8 197.706 50.0525 197.889 49.289C198.22 47.9145 198.772 46.9925 199.547 46.5228C200.36 46.0619 201.277 45.9462 202.296 46.1756L212.235 48.4121C213.413 48.677 214.236 49.2045 214.708 49.9947C215.227 50.7555 215.349 51.7086 215.074 52.854L212.265 64.5366Z" fill="#FDE047"/>
<path d="M252.428 93.9159C252.003 93.748 251.37 93.4256 250.529 92.9488C249.721 92.4957 248.949 91.9959 248.214 91.4494C247.48 90.9028 246.874 90.3534 246.397 89.801C245.927 89.3036 245.611 88.7721 245.448 88.2065C245.285 87.641 245.304 87.0376 245.505 86.3965C245.705 85.7554 246.124 85.0298 246.761 84.2197L266.176 59.5431C266.577 59.7421 267.197 60.0801 268.038 60.5569C268.902 61.0026 269.686 61.4868 270.389 62.0096C271.124 62.5561 271.714 63.0937 272.159 63.6223C272.661 64.1435 272.993 64.6869 273.156 65.2525C273.319 65.818 273.3 66.4214 273.099 67.0625C272.899 67.7036 272.48 68.4291 271.842 69.2392L252.428 93.9159Z" fill="#FDE047"/>
<mask id="mask0_0_1" style="mask-type:luminance" maskUnits="userSpaceOnUse" x="36" y="30" width="238" height="71">
<path d="M55.619 85.0173C53.8626 85.6528 52.2313 86.1892 50.7251 86.6264C49.1935 87.0333 47.742 87.2252 46.3707 87.202C44.9993 87.1789 43.6984 86.8981 42.4679 86.3595C41.2432 85.7658 40.0723 84.8013 38.9553 83.4661C36.7974 80.8866 36.0871 78.0173 36.8243 74.8583C37.5929 71.6746 39.8216 68.6201 43.5105 65.6949C44.8548 64.629 46.1814 63.7285 47.4904 62.9933C48.7994 62.2582 50.0254 61.7656 51.1682 61.5156C52.3169 61.2105 53.3796 61.1755 54.3563 61.4106C55.3076 61.6153 56.1132 62.1122 56.7733 62.9012C57.4334 63.6902 57.817 64.5218 57.9242 65.3958C58.0061 66.2396 57.9463 67.0694 57.7449 67.8853C56.7017 68.0058 55.4748 68.3729 54.0642 68.9867C52.6283 69.5701 51.2225 70.4071 49.847 71.4979C48.4402 72.6134 47.5736 73.6287 47.2471 74.5438C46.8953 75.4285 46.9605 76.1592 47.4429 76.7358C47.8237 77.191 48.3443 77.4092 49.0045 77.3904C49.6394 77.3412 50.4648 77.1158 51.4807 76.7141L54.6134 75.5171C58.3137 74.0974 61.5419 73.4809 64.2982 73.6677C67.0604 73.7994 69.457 75.0791 71.4879 77.5069C73.6458 80.0864 74.3503 83.0108 73.6013 86.28C72.8269 89.519 70.4076 92.7497 66.3436 95.9723C64.9055 97.1127 63.4597 98.0572 62.0061 98.806C60.6092 99.5604 59.2641 100.097 57.9708 100.416C56.6834 100.679 55.5075 100.703 54.4429 100.488C53.3842 100.217 52.4994 99.6562 51.7885 98.8064C51.0523 97.9264 50.6961 96.9722 50.7198 95.9438C50.7181 94.8851 50.8902 93.941 51.2362 93.1114C52.6701 93.0849 54.2153 92.8186 55.872 92.3126C57.5599 91.7818 59.1542 90.9215 60.6547 89.7316C62.1866 88.5169 63.0747 87.434 63.3191 86.4831C63.5636 85.5321 63.4319 84.7531 62.9242 84.1462C62.4164 83.5392 61.7855 83.2823 61.0315 83.3755C60.252 83.4383 59.282 83.6774 58.1216 84.0929L55.619 85.0173Z" fill="white"/>
<path d="M110.948 34.3427C111.526 33.8111 112.442 33.2236 113.697 32.5804C114.991 31.9283 116.325 31.448 117.699 31.1396C119.662 30.699 121.457 30.5976 123.083 30.8354C124.74 31.0263 125.923 31.665 126.632 32.7517C127.804 34.5785 129.111 36.7166 130.552 39.166C131.994 41.6154 133.458 44.1603 134.945 46.8006C136.422 49.4028 137.876 51.9902 139.305 54.563C140.725 57.0976 141.976 59.3488 143.057 61.3166C142.711 61.9569 142.102 62.5355 141.231 63.0524C140.37 63.6075 139.291 64.0305 137.995 64.3213C137.053 64.5328 136.23 64.6371 135.526 64.6342C134.862 64.6225 134.279 64.5124 133.775 64.3039C133.311 64.0865 132.883 63.7606 132.492 63.3259C132.14 62.8824 131.79 62.3582 131.442 61.7532L129.456 58.0394L118.795 60.432C118.749 61.6479 118.713 62.902 118.685 64.1943C118.657 65.4866 118.62 66.7407 118.574 67.9566C118.069 68.2709 117.516 68.5558 116.914 68.8114C116.361 69.0963 115.653 69.3357 114.789 69.5295C112.786 69.979 111.218 69.9893 110.084 69.5606C108.981 69.0848 108.291 68.2551 108.013 67.0715C107.888 66.537 107.842 65.9848 107.873 65.415C107.905 64.8453 107.934 64.1756 107.961 63.4061C107.994 62.3135 108.067 60.9508 108.181 59.3178C108.334 57.676 108.499 55.9108 108.676 54.0223C108.845 52.0956 109.044 50.1219 109.273 48.1012C109.502 46.0805 109.719 44.1832 109.923 42.4093C110.119 40.5971 110.3 38.9891 110.467 37.5852C110.674 36.1725 110.834 35.0916 110.948 34.3427ZM119.746 40.1444C119.572 41.8714 119.364 43.8069 119.123 45.951C118.911 48.048 118.768 50.17 118.692 52.317L125.996 50.6778C124.963 48.7394 123.924 46.8627 122.879 45.0477C121.864 43.1856 120.938 41.5248 120.1 40.0651L119.746 40.1444Z" fill="white"/>
<path d="M212.265 64.5366C211.98 65.7201 211.553 66.5497 210.984 67.0253C210.415 67.501 209.596 67.9001 208.526 68.2229C207.904 68.4048 207.144 68.5558 206.247 68.6759C205.36 68.7579 204.403 68.784 203.376 68.7544C202.341 68.7628 201.261 68.7008 200.135 68.5683C199.049 68.4446 197.977 68.2636 196.918 68.0254C194.095 67.3901 191.535 66.4319 189.239 65.1506C186.952 63.8312 185.067 62.2196 183.582 60.316C182.145 58.383 181.169 56.1711 180.652 53.6803C180.135 51.1896 180.234 48.4552 180.95 45.4773C181.703 42.3467 182.928 39.7448 184.625 37.6718C186.362 35.6076 188.354 34.0237 190.604 32.9201C192.902 31.7871 195.358 31.1124 197.972 30.8959C200.626 30.6881 203.247 30.8755 205.835 31.4578C209.56 32.296 212.359 33.5495 214.231 35.2183C216.151 36.8578 216.886 38.6127 216.436 40.4834C216.197 41.4761 215.737 42.278 215.052 42.8887C214.368 43.4993 213.642 43.9397 212.875 44.2096C212.032 43.4164 210.93 42.5849 209.569 41.7151C208.256 40.8159 206.678 40.159 204.835 39.7443C201.541 39.0032 198.693 39.3283 196.291 40.7195C193.93 42.1199 192.359 44.4426 191.579 47.6878C191.156 49.444 191.044 51.0285 191.241 52.4413C191.487 53.8247 191.96 55.0378 192.66 56.0807C193.369 57.0854 194.262 57.93 195.337 58.6147C196.421 59.2612 197.63 59.7344 198.963 60.0344C199.826 60.2285 200.609 60.3242 201.312 60.3215C202.016 60.3188 202.567 60.2617 202.966 60.1502L204.26 54.767L197.967 53.3509C197.832 52.878 197.73 52.2715 197.66 51.5313C197.629 50.8 197.706 50.0525 197.889 49.289C198.22 47.9145 198.772 46.9925 199.547 46.5228C200.36 46.0619 201.277 45.9462 202.296 46.1756L212.235 48.4121C213.413 48.677 214.236 49.2045 214.708 49.9947C215.227 50.7555 215.349 51.7086 215.074 52.854L212.265 64.5366Z" fill="white"/>
<path d="M252.428 93.9159C252.003 93.748 251.37 93.4256 250.529 92.9488C249.721 92.4957 248.949 91.9959 248.214 91.4494C247.48 90.9028 246.874 90.3534 246.397 89.801C245.927 89.3036 245.611 88.7721 245.448 88.2065C245.285 87.641 245.304 87.0376 245.505 86.3965C245.705 85.7554 246.124 85.0298 246.761 84.2197L266.176 59.5431C266.577 59.7421 267.197 60.0801 268.038 60.5569C268.902 61.0026 269.686 61.4868 270.389 62.0096C271.124 62.5561 271.714 63.0937 272.159 63.6223C272.661 64.1435 272.993 64.6869 273.156 65.2525C273.319 65.818 273.3 66.4214 273.099 67.0625C272.899 67.7036 272.48 68.4291 271.842 69.2392L252.428 93.9159Z" fill="white"/>
</mask>
<g mask="url(#mask0_0_1)">
<path d="M55.619 85.0173C53.8626 85.6528 52.2313 86.1892 50.7251 86.6264C49.1935 87.0333 47.742 87.2252 46.3707 87.202C44.9993 87.1789 43.6984 86.8981 42.4679 86.3595C41.2432 85.7658 40.0723 84.8013 38.9553 83.4661C36.7974 80.8866 36.0871 78.0173 36.8243 74.8583C37.5929 71.6746 39.8216 68.6201 43.5105 65.6949C44.8548 64.629 46.1814 63.7285 47.4904 62.9933C48.7994 62.2582 50.0254 61.7656 51.1682 61.5156C52.3169 61.2105 53.3796 61.1755 54.3563 61.4106C55.3076 61.6153 56.1132 62.1122 56.7733 62.9012C57.4334 63.6902 57.817 64.5218 57.9242 65.3958C58.0061 66.2396 57.9463 67.0694 57.7449 67.8853C56.7017 68.0058 55.4748 68.3729 54.0642 68.9867C52.6283 69.5701 51.2225 70.4071 49.847 71.4979C48.4402 72.6134 47.5736 73.6287 47.2471 74.5438C46.8953 75.4285 46.9605 76.1592 47.4429 76.7358C47.8237 77.191 48.3443 77.4092 49.0045 77.3904C49.6394 77.3412 50.4648 77.1158 51.4807 76.7141L54.6134 75.5171C58.3137 74.0974 61.5419 73.4809 64.2982 73.6677C67.0604 73.7994 69.457 75.0791 71.4879 77.5069C73.6458 80.0864 74.3503 83.0108 73.6013 86.28C72.8269 89.519 70.4076 92.7497 66.3436 95.9723C64.9055 97.1127 63.4597 98.0572 62.0061 98.806C60.6092 99.5604 59.2641 100.097 57.9708 100.416C56.6834 100.679 55.5075 100.703 54.4429 100.488C53.3842 100.217 52.4994 99.6562 51.7885 98.8064C51.0523 97.9264 50.6961 96.9722 50.7198 95.9438C50.7181 94.8851 50.8902 93.941 51.2362 93.1114C52.6701 93.0849 54.2153 92.8186 55.872 92.3126C57.5599 91.7818 59.1542 90.9215 60.6547 89.7316C62.1866 88.5169 63.0747 87.434 63.3191 86.4831C63.5636 85.5321 63.4319 84.7531 62.9242 84.1462C62.4164 83.5392 61.7855 83.2823 61.0315 83.3755C60.252 83.4383 59.282 83.6774 58.1216 84.0929L55.619 85.0173Z" stroke="#22C55E" stroke-width="2"/>
</g>
<mask id="mask1_0_1" style="mask-type:luminance" maskUnits="userSpaceOnUse" x="36" y="30" width="238" height="71">
<path d="M55.619 85.0173C53.8626 85.6528 52.2313 86.1892 50.7251 86.6264C49.1935 87.0333 47.742 87.2252 46.3707 87.202C44.9993 87.1789 43.6984 86.8981 42.4679 86.3595C41.2432 85.7658 40.0723 84.8013 38.9553 83.4661C36.7974 80.8866 36.0871 78.0173 36.8243 74.8583C37.5929 71.6746 39.8216 68.6201 43.5105 65.6949C44.8548 64.629 46.1814 63.7285 47.4904 62.9933C48.7994 62.2582 50.0254 61.7656 51.1682 61.5156C52.3169 61.2105 53.3796 61.1755 54.3563 61.4106C55.3076 61.6153 56.1132 62.1122 56.7733 62.9012C57.4334 63.6902 57.817 64.5218 57.9242 65.3958C58.0061 66.2396 57.9463 67.0694 57.7449 67.8853C56.7017 68.0058 55.4748 68.3729 54.0642 68.9867C52.6283 69.5701 51.2225 70.4071 49.847 71.4979C48.4402 72.6134 47.5736 73.6287 47.2471 74.5438C46.8953 75.4285 46.9605 76.1592 47.4429 76.7358C47.8237 77.191 48.3443 77.4092 49.0045 77.3904C49.6394 77.3412 50.4648 77.1158 51.4807 76.7141L54.6134 75.5171C58.3137 74.0974 61.5419 73.4809 64.2982 73.6677C67.0604 73.7994 69.457 75.0791 71.4879 77.5069C73.6458 80.0864 74.3503 83.0108 73.6013 86.28C72.8269 89.519 70.4076 92.7497 66.3436 95.9723C64.9055 97.1127 63.4597 98.0572 62.0061 98.806C60.6092 99.5604 59.2641 100.097 57.9708 100.416C56.6834 100.679 55.5075 100.703 54.4429 100.488C53.3842 100.217 52.4994 99.6562 51.7885 98.8064C51.0523 97.9264 50.6961 96.9722 50.7198 95.9438C50.7181 94.8851 50.8902 93.941 51.2362 93.1114C52.6701 93.0849 54.2153 92.8186 55.872 92.3126C57.5599 91.7818 59.1542 90.9215 60.6547 89.7316C62.1866 88.5169 63.0747 87.434 63.3191 86.4831C63.5636 85.5321 63.4319 84.7531 62.9242 84.1462C62.4164 83.5392 61.7855 83.2823 61.0315 83.3755C60.252 83.4383 59.282 83.6774 58.1216 84.0929L55.619 85.0173Z" fill="white"/>
<path d="M110.948 34.3427C111.526 33.8111 112.442 33.2236 113.697 32.5804C114.991 31.9283 116.325 31.448 117.699 31.1396C119.662 30.699 121.457 30.5976 123.083 30.8354C124.74 31.0263 125.923 31.665 126.632 32.7517C127.804 34.5785 129.111 36.7166 130.552 39.166C131.994 41.6154 133.458 44.1603 134.945 46.8006C136.422 49.4028 137.876 51.9902 139.305 54.563C140.725 57.0976 141.976 59.3488 143.057 61.3166C142.711 61.9569 142.102 62.5355 141.231 63.0524C140.37 63.6075 139.291 64.0305 137.995 64.3213C137.053 64.5328 136.23 64.6371 135.526 64.6342C134.862 64.6225 134.279 64.5124 133.775 64.3039C133.311 64.0865 132.883 63.7606 132.492 63.3259C132.14 62.8824 131.79 62.3582 131.442 61.7532L129.456 58.0394L118.795 60.432C118.749 61.6479 118.713 62.902 118.685 64.1943C118.657 65.4866 118.62 66.7407 118.574 67.9566C118.069 68.2709 117.516 68.5558 116.914 68.8114C116.361 69.0963 115.653 69.3357 114.789 69.5295C112.786 69.979 111.218 69.9893 110.084 69.5606C108.981 69.0848 108.291 68.2551 108.013 67.0715C107.888 66.537 107.842 65.9848 107.873 65.415C107.905 64.8453 107.934 64.1756 107.961 63.4061C107.994 62.3135 108.067 60.9508 108.181 59.3178C108.334 57.676 108.499 55.9108 108.676 54.0223C108.845 52.0956 109.044 50.1219 109.273 48.1012C109.502 46.0805 109.719 44.1832 109.923 42.4093C110.119 40.5971 110.3 38.9891 110.467 37.5852C110.674 36.1725 110.834 35.0916 110.948 34.3427ZM119.746 40.1444C119.572 41.8714 119.364 43.8069 119.123 45.951C118.911 48.048 118.768 50.17 118.692 52.317L125.996 50.6778C124.963 48.7394 123.924 46.8627 122.879 45.0477C121.864 43.1856 120.938 41.5248 120.1 40.0651L119.746 40.1444Z" fill="white"/>
<path d="M212.265 64.5366C211.98 65.7201 211.553 66.5497 210.984 67.0253C210.415 67.501 209.596 67.9001 208.526 68.2229C207.904 68.4048 207.144 68.5558 206.247 68.6759C205.36 68.7579 204.403 68.784 203.376 68.7544C202.341 68.7628 201.261 68.7008 200.135 68.5683C199.049 68.4446 197.977 68.2636 196.918 68.0254C194.095 67.3901 191.535 66.4319 189.239 65.1506C186.952 63.8312 185.067 62.2196 183.582 60.316C182.145 58.383 181.169 56.1711 180.652 53.6803C180.135 51.1896 180.234 48.4552 180.95 45.4773C181.703 42.3467 182.928 39.7448 184.625 37.6718C186.362 35.6076 188.354 34.0237 190.604 32.9201C192.902 31.7871 195.358 31.1124 197.972 30.8959C200.626 30.6881 203.247 30.8755 205.835 31.4578C209.56 32.296 212.359 33.5495 214.231 35.2183C216.151 36.8578 216.886 38.6127 216.436 40.4834C216.197 41.4761 215.737 42.278 215.052 42.8887C214.368 43.4993 213.642 43.9397 212.875 44.2096C212.032 43.4164 210.93 42.5849 209.569 41.7151C208.256 40.8159 206.678 40.159 204.835 39.7443C201.541 39.0032 198.693 39.3283 196.291 40.7195C193.93 42.1199 192.359 44.4426 191.579 47.6878C191.156 49.444 191.044 51.0285 191.241 52.4413C191.487 53.8247 191.96 55.0378 192.66 56.0807C193.369 57.0854 194.262 57.93 195.337 58.6147C196.421 59.2612 197.63 59.7344 198.963 60.0344C199.826 60.2285 200.609 60.3242 201.312 60.3215C202.016 60.3188 202.567 60.2617 202.966 60.1502L204.26 54.767L197.967 53.3509C197.832 52.878 197.73 52.2715 197.66 51.5313C197.629 50.8 197.706 50.0525 197.889 49.289C198.22 47.9145 198.772 46.9925 199.547 46.5228C200.36 46.0619 201.277 45.9462 202.296 46.1756L212.235 48.4121C213.413 48.677 214.236 49.2045 214.708 49.9947C215.227 50.7555 215.349 51.7086 215.074 52.854L212.265 64.5366Z" fill="white"/>
<path d="M252.428 93.9159C252.003 93.748 251.37 93.4256 250.529 92.9488C249.721 92.4957 248.949 91.9959 248.214 91.4494C247.48 90.9028 246.874 90.3534 246.397 89.801C245.927 89.3036 245.611 88.7721 245.448 88.2065C245.285 87.641 245.304 87.0376 245.505 86.3965C245.705 85.7554 246.124 85.0298 246.761 84.2197L266.176 59.5431C266.577 59.7421 267.197 60.0801 268.038 60.5569C268.902 61.0026 269.686 61.4868 270.389 62.0096C271.124 62.5561 271.714 63.0937 272.159 63.6223C272.661 64.1435 272.993 64.6869 273.156 65.2525C273.319 65.818 273.3 66.4214 273.099 67.0625C272.899 67.7036 272.48 68.4291 271.842 69.2392L252.428 93.9159Z" fill="white"/>
</mask>
<g mask="url(#mask1_0_1)">
<path d="M110.948 34.3427C111.526 33.8111 112.442 33.2236 113.697 32.5804C114.991 31.9283 116.325 31.448 117.699 31.1396C119.662 30.699 121.457 30.5976 123.083 30.8354C124.74 31.0263 125.923 31.665 126.632 32.7517C127.804 34.5785 129.111 36.7166 130.552 39.166C131.994 41.6154 133.458 44.1603 134.945 46.8006C136.422 49.4028 137.876 51.9902 139.305 54.563C140.725 57.0976 141.976 59.3488 143.057 61.3166C142.711 61.9569 142.102 62.5355 141.231 63.0524C140.37 63.6075 139.291 64.0305 137.995 64.3213C137.053 64.5328 136.23 64.6371 135.526 64.6342C134.862 64.6225 134.279 64.5124 133.775 64.3039C133.311 64.0865 132.883 63.7606 132.492 63.3259C132.14 62.8824 131.79 62.3582 131.442 61.7532L129.456 58.0394L118.795 60.432C118.749 61.6479 118.713 62.902 118.685 64.1943C118.657 65.4866 118.62 66.7407 118.574 67.9566C118.069 68.2709 117.516 68.5558 116.914 68.8114C116.361 69.0963 115.653 69.3357 114.789 69.5295C112.786 69.979 111.218 69.9893 110.084 69.5606C108.981 69.0848 108.291 68.2551 108.013 67.0715C107.888 66.537 107.842 65.9848 107.873 65.415C107.905 64.8453 107.934 64.1756 107.961 63.4061C107.994 62.3135 108.067 60.9508 108.181 59.3178C108.334 57.676 108.499 55.9108 108.676 54.0223C108.845 52.0956 109.044 50.1219 109.273 48.1012C109.502 46.0805 109.719 44.1832 109.923 42.4093C110.119 40.5971 110.3 38.9891 110.467 37.5852C110.674 36.1725 110.834 35.0916 110.948 34.3427ZM119.746 40.1444C119.572 41.8714 119.364 43.8069 119.123 45.951C118.911 48.048 118.768 50.17 118.692 52.317L125.996 50.6778C124.963 48.7394 123.924 46.8627 122.879 45.0477C121.864 43.1856 120.938 41.5248 120.1 40.0651L119.746 40.1444Z" stroke="#22C55E" stroke-width="2"/>
</g>
<mask id="mask2_0_1" style="mask-type:luminance" maskUnits="userSpaceOnUse" x="36" y="30" width="238" height="71">
<path d="M55.619 85.0173C53.8626 85.6528 52.2313 86.1892 50.7251 86.6264C49.1935 87.0333 47.742 87.2252 46.3707 87.202C44.9993 87.1789 43.6984 86.8981 42.4679 86.3595C41.2432 85.7658 40.0723 84.8013 38.9553 83.4661C36.7974 80.8866 36.0871 78.0173 36.8243 74.8583C37.5929 71.6746 39.8216 68.6201 43.5105 65.6949C44.8548 64.629 46.1814 63.7285 47.4904 62.9933C48.7994 62.2582 50.0254 61.7656 51.1682 61.5156C52.3169 61.2105 53.3796 61.1755 54.3563 61.4106C55.3076 61.6153 56.1132 62.1122 56.7733 62.9012C57.4334 63.6902 57.817 64.5218 57.9242 65.3958C58.0061 66.2396 57.9463 67.0694 57.7449 67.8853C56.7017 68.0058 55.4748 68.3729 54.0642 68.9867C52.6283 69.5701 51.2225 70.4071 49.847 71.4979C48.4402 72.6134 47.5736 73.6287 47.2471 74.5438C46.8953 75.4285 46.9605 76.1592 47.4429 76.7358C47.8237 77.191 48.3443 77.4092 49.0045 77.3904C49.6394 77.3412 50.4648 77.1158 51.4807 76.7141L54.6134 75.5171C58.3137 74.0974 61.5419 73.4809 64.2982 73.6677C67.0604 73.7994 69.457 75.0791 71.4879 77.5069C73.6458 80.0864 74.3503 83.0108 73.6013 86.28C72.8269 89.519 70.4076 92.7497 66.3436 95.9723C64.9055 97.1127 63.4597 98.0572 62.0061 98.806C60.6092 99.5604 59.2641 100.097 57.9708 100.416C56.6834 100.679 55.5075 100.703 54.4429 100.488C53.3842 100.217 52.4994 99.6562 51.7885 98.8064C51.0523 97.9264 50.6961 96.9722 50.7198 95.9438C50.7181 94.8851 50.8902 93.941 51.2362 93.1114C52.6701 93.0849 54.2153 92.8186 55.872 92.3126C57.5599 91.7818 59.1542 90.9215 60.6547 89.7316C62.1866 88.5169 63.0747 87.434 63.3191 86.4831C63.5636 85.5321 63.4319 84.7531 62.9242 84.1462C62.4164 83.5392 61.7855 83.2823 61.0315 83.3755C60.252 83.4383 59.282 83.6774 58.1216 84.0929L55.619 85.0173Z" fill="white"/>
<path d="M110.948 34.3427C111.526 33.8111 112.442 33.2236 113.697 32.5804C114.991 31.9283 116.325 31.448 117.699 31.1396C119.662 30.699 121.457 30.5976 123.083 30.8354C124.74 31.0263 125.923 31.665 126.632 32.7517C127.804 34.5785 129.111 36.7166 130.552 39.166C131.994 41.6154 133.458 44.1603 134.945 46.8006C136.422 49.4028 137.876 51.9902 139.305 54.563C140.725 57.0976 141.976 59.3488 143.057 61.3166C142.711 61.9569 142.102 62.5355 141.231 63.0524C140.37 63.6075 139.291 64.0305 137.995 64.3213C137.053 64.5328 136.23 64.6371 135.526 64.6342C134.862 64.6225 134.279 64.5124 133.775 64.3039C133.311 64.0865 132.883 63.7606 132.492 63.3259C132.14 62.8824 131.79 62.3582 131.442 61.7532L129.456 58.0394L118.795 60.432C118.749 61.6479 118.713 62.902 118.685 64.1943C118.657 65.4866 118.62 66.7407 118.574 67.9566C118.069 68.2709 117.516 68.5558 116.914 68.8114C116.361 69.0963 115.653 69.3357 114.789 69.5295C112.786 69.979 111.218 69.9893 110.084 69.5606C108.981 69.0848 108.291 68.2551 108.013 67.0715C107.888 66.537 107.842 65.9848 107.873 65.415C107.905 64.8453 107.934 64.1756 107.961 63.4061C107.994 62.3135 108.067 60.9508 108.181 59.3178C108.334 57.676 108.499 55.9108 108.676 54.0223C108.845 52.0956 109.044 50.1219 109.273 48.1012C109.502 46.0805 109.719 44.1832 109.923 42.4093C110.119 40.5971 110.3 38.9891 110.467 37.5852C110.674 36.1725 110.834 35.0916 110.948 34.3427ZM119.746 40.1444C119.572 41.8714 119.364 43.8069 119.123 45.951C118.911 48.048 118.768 50.17 118.692 52.317L125.996 50.6778C124.963 48.7394 123.924 46.8627 122.879 45.0477C121.864 43.1856 120.938 41.5248 120.1 40.0651L119.746 40.1444Z" fill="white"/>
<path d="M212.265 64.5366C211.98 65.7201 211.553 66.5497 210.984 67.0253C210.415 67.501 209.596 67.9001 208.526 68.2229C207.904 68.4048 207.144 68.5558 206.247 68.6759C205.36 68.7579 204.403 68.784 203.376 68.7544C202.341 68.7628 201.261 68.7008 200.135 68.5683C199.049 68.4446 197.977 68.2636 196.918 68.0254C194.095 67.3901 191.535 66.4319 189.239 65.1506C186.952 63.8312 185.067 62.2196 183.582 60.316C182.145 58.383 181.169 56.1711 180.652 53.6803C180.135 51.1896 180.234 48.4552 180.95 45.4773C181.703 42.3467 182.928 39.7448 184.625 37.6718C186.362 35.6076 188.354 34.0237 190.604 32.9201C192.902 31.7871 195.358 31.1124 197.972 30.8959C200.626 30.6881 203.247 30.8755 205.835 31.4578C209.56 32.296 212.359 33.5495 214.231 35.2183C216.151 36.8578 216.886 38.6127 216.436 40.4834C216.197 41.4761 215.737 42.278 215.052 42.8887C214.368 43.4993 213.642 43.9397 212.875 44.2096C212.032 43.4164 210.93 42.5849 209.569 41.7151C208.256 40.8159 206.678 40.159 204.835 39.7443C201.541 39.0032 198.693 39.3283 196.291 40.7195C193.93 42.1199 192.359 44.4426 191.579 47.6878C191.156 49.444 191.044 51.0285 191.241 52.4413C191.487 53.8247 191.96 55.0378 192.66 56.0807C193.369 57.0854 194.262 57.93 195.337 58.6147C196.421 59.2612 197.63 59.7344 198.963 60.0344C199.826 60.2285 200.609 60.3242 201.312 60.3215C202.016 60.3188 202.567 60.2617 202.966 60.1502L204.26 54.767L197.967 53.3509C197.832 52.878 197.73 52.2715 197.66 51.5313C197.629 50.8 197.706 50.0525 197.889 49.289C198.22 47.9145 198.772 46.9925 199.547 46.5228C200.36 46.0619 201.277 45.9462 202.296 46.1756L212.235 48.4121C213.413 48.677 214.236 49.2045 214.708 49.9947C215.227 50.7555 215.349 51.7086 215.074 52.854L212.265 64.5366Z" fill="white"/>
<path d="M252.428 93.9159C252.003 93.748 251.37 93.4256 250.529 92.9488C249.721 92.4957 248.949 91.9959 248.214 91.4494C247.48 90.9028 246.874 90.3534 246.397 89.801C245.927 89.3036 245.611 88.7721 245.448 88.2065C245.285 87.641 245.304 87.0376 245.505 86.3965C245.705 85.7554 246.124 85.0298 246.761 84.2197L266.176 59.5431C266.577 59.7421 267.197 60.0801 268.038 60.5569C268.902 61.0026 269.686 61.4868 270.389 62.0096C271.124 62.5561 271.714 63.0937 272.159 63.6223C272.661 64.1435 272.993 64.6869 273.156 65.2525C273.319 65.818 273.3 66.4214 273.099 67.0625C272.899 67.7036 272.48 68.4291 271.842 69.2392L252.428 93.9159Z" fill="white"/>
</mask>
<g mask="url(#mask2_0_1)">
<path d="M212.265 64.5366C211.98 65.7201 211.553 66.5497 210.984 67.0253C210.415 67.501 209.596 67.9001 208.526 68.2229C207.904 68.4048 207.144 68.5558 206.247 68.6759C205.36 68.7579 204.403 68.784 203.376 68.7544C202.341 68.7628 201.261 68.7008 200.135 68.5683C199.049 68.4446 197.977 68.2636 196.918 68.0254C194.095 67.3901 191.535 66.4319 189.239 65.1506C186.952 63.8312 185.067 62.2196 183.582 60.316C182.145 58.383 181.169 56.1711 180.652 53.6803C180.135 51.1896 180.234 48.4552 180.95 45.4773C181.703 42.3467 182.928 39.7448 184.625 37.6718C186.362 35.6076 188.354 34.0237 190.604 32.9201C192.902 31.7871 195.358 31.1124 197.972 30.8959C200.626 30.6881 203.247 30.8755 205.835 31.4578C209.56 32.296 212.359 33.5495 214.231 35.2183C216.151 36.8578 216.886 38.6127 216.436 40.4834C216.197 41.4761 215.737 42.278 215.052 42.8887C214.368 43.4993 213.642 43.9397 212.875 44.2096C212.032 43.4164 210.93 42.5849 209.569 41.7151C208.256 40.8159 206.678 40.159 204.835 39.7443C201.541 39.0032 198.693 39.3283 196.291 40.7195C193.93 42.1199 192.359 44.4426 191.579 47.6878C191.156 49.444 191.044 51.0285 191.241 52.4413C191.487 53.8247 191.96 55.0378 192.66 56.0807C193.369 57.0854 194.262 57.93 195.337 58.6147C196.421 59.2612 197.63 59.7344 198.963 60.0344C199.826 60.2285 200.609 60.3242 201.312 60.3215C202.016 60.3188 202.567 60.2617 202.966 60.1502L204.26 54.767L197.967 53.3509C197.832 52.878 197.73 52.2715 197.66 51.5313C197.629 50.8 197.706 50.0525 197.889 49.289C198.22 47.9145 198.772 46.9925 199.547 46.5228C200.36 46.0619 201.277 45.9462 202.296 46.1756L212.235 48.4121C213.413 48.677 214.236 49.2045 214.708 49.9947C215.227 50.7555 215.349 51.7086 215.074 52.854L212.265 64.5366Z" stroke="#22C55E" stroke-width="2"/>
</g>
<mask id="mask3_0_1" style="mask-type:luminance" maskUnits="userSpaceOnUse" x="36" y="30" width="238" height="71">
<path d="M55.619 85.0173C53.8626 85.6528 52.2313 86.1892 50.7251 86.6264C49.1935 87.0333 47.742 87.2252 46.3707 87.202C44.9993 87.1789 43.6984 86.8981 42.4679 86.3595C41.2432 85.7658 40.0723 84.8013 38.9553 83.4661C36.7974 80.8866 36.0871 78.0173 36.8243 74.8583C37.5929 71.6746 39.8216 68.6201 43.5105 65.6949C44.8548 64.629 46.1814 63.7285 47.4904 62.9933C48.7994 62.2582 50.0254 61.7656 51.1682 61.5156C52.3169 61.2105 53.3796 61.1755 54.3563 61.4106C55.3076 61.6153 56.1132 62.1122 56.7733 62.9012C57.4334 63.6902 57.817 64.5218 57.9242 65.3958C58.0061 66.2396 57.9463 67.0694 57.7449 67.8853C56.7017 68.0058 55.4748 68.3729 54.0642 68.9867C52.6283 69.5701 51.2225 70.4071 49.847 71.4979C48.4402 72.6134 47.5736 73.6287 47.2471 74.5438C46.8953 75.4285 46.9605 76.1592 47.4429 76.7358C47.8237 77.191 48.3443 77.4092 49.0045 77.3904C49.6394 77.3412 50.4648 77.1158 51.4807 76.7141L54.6134 75.5171C58.3137 74.0974 61.5419 73.4809 64.2982 73.6677C67.0604 73.7994 69.457 75.0791 71.4879 77.5069C73.6458 80.0864 74.3503 83.0108 73.6013 86.28C72.8269 89.519 70.4076 92.7497 66.3436 95.9723C64.9055 97.1127 63.4597 98.0572 62.0061 98.806C60.6092 99.5604 59.2641 100.097 57.9708 100.416C56.6834 100.679 55.5075 100.703 54.4429 100.488C53.3842 100.217 52.4994 99.6562 51.7885 98.8064C51.0523 97.9264 50.6961 96.9722 50.7198 95.9438C50.7181 94.8851 50.8902 93.941 51.2362 93.1114C52.6701 93.0849 54.2153 92.8186 55.872 92.3126C57.5599 91.7818 59.1542 90.9215 60.6547 89.7316C62.1866 88.5169 63.0747 87.434 63.3191 86.4831C63.5636 85.5321 63.4319 84.7531 62.9242 84.1462C62.4164 83.5392 61.7855 83.2823 61.0315 83.3755C60.252 83.4383 59.282 83.6774 58.1216 84.0929L55.619 85.0173Z" fill="white"/>
<path d="M110.948 34.3427C111.526 33.8111 112.442 33.2236 113.697 32.5804C114.991 31.9283 116.325 31.448 117.699 31.1396C119.662 30.699 121.457 30.5976 123.083 30.8354C124.74 31.0263 125.923 31.665 126.632 32.7517C127.804 34.5785 129.111 36.7166 130.552 39.166C131.994 41.6154 133.458 44.1603 134.945 46.8006C136.422 49.4028 137.876 51.9902 139.305 54.563C140.725 57.0976 141.976 59.3488 143.057 61.3166C142.711 61.9569 142.102 62.5355 141.231 63.0524C140.37 63.6075 139.291 64.0305 137.995 64.3213C137.053 64.5328 136.23 64.6371 135.526 64.6342C134.862 64.6225 134.279 64.5124 133.775 64.3039C133.311 64.0865 132.883 63.7606 132.492 63.3259C132.14 62.8824 131.79 62.3582 131.442 61.7532L129.456 58.0394L118.795 60.432C118.749 61.6479 118.713 62.902 118.685 64.1943C118.657 65.4866 118.62 66.7407 118.574 67.9566C118.069 68.2709 117.516 68.5558 116.914 68.8114C116.361 69.0963 115.653 69.3357 114.789 69.5295C112.786 69.979 111.218 69.9893 110.084 69.5606C108.981 69.0848 108.291 68.2551 108.013 67.0715C107.888 66.537 107.842 65.9848 107.873 65.415C107.905 64.8453 107.934 64.1756 107.961 63.4061C107.994 62.3135 108.067 60.9508 108.181 59.3178C108.334 57.676 108.499 55.9108 108.676 54.0223C108.845 52.0956 109.044 50.1219 109.273 48.1012C109.502 46.0805 109.719 44.1832 109.923 42.4093C110.119 40.5971 110.3 38.9891 110.467 37.5852C110.674 36.1725 110.834 35.0916 110.948 34.3427ZM119.746 40.1444C119.572 41.8714 119.364 43.8069 119.123 45.951C118.911 48.048 118.768 50.17 118.692 52.317L125.996 50.6778C124.963 48.7394 123.924 46.8627 122.879 45.0477C121.864 43.1856 120.938 41.5248 120.1 40.0651L119.746 40.1444Z" fill="white"/>
<path d="M212.265 64.5366C211.98 65.7201 211.553 66.5497 210.984 67.0253C210.415 67.501 209.596 67.9001 208.526 68.2229C207.904 68.4048 207.144 68.5558 206.247 68.6759C205.36 68.7579 204.403 68.784 203.376 68.7544C202.341 68.7628 201.261 68.7008 200.135 68.5683C199.049 68.4446 197.977 68.2636 196.918 68.0254C194.095 67.3901 191.535 66.4319 189.239 65.1506C186.952 63.8312 185.067 62.2196 183.582 60.316C182.145 58.383 181.169 56.1711 180.652 53.6803C180.135 51.1896 180.234 48.4552 180.95 45.4773C181.703 42.3467 182.928 39.7448 184.625 37.6718C186.362 35.6076 188.354 34.0237 190.604 32.9201C192.902 31.7871 195.358 31.1124 197.972 30.8959C200.626 30.6881 203.247 30.8755 205.835 31.4578C209.56 32.296 212.359 33.5495 214.231 35.2183C216.151 36.8578 216.886 38.6127 216.436 40.4834C216.197 41.4761 215.737 42.278 215.052 42.8887C214.368 43.4993 213.642 43.9397 212.875 44.2096C212.032 43.4164 210.93 42.5849 209.569 41.7151C208.256 40.8159 206.678 40.159 204.835 39.7443C201.541 39.0032 198.693 39.3283 196.291 40.7195C193.93 42.1199 192.359 44.4426 191.579 47.6878C191.156 49.444 191.044 51.0285 191.241 52.4413C191.487 53.8247 191.96 55.0378 192.66 56.0807C193.369 57.0854 194.262 57.93 195.337 58.6147C196.421 59.2612 197.63 59.7344 198.963 60.0344C199.826 60.2285 200.609 60.3242 201.312 60.3215C202.016 60.3188 202.567 60.2617 202.966 60.1502L204.26 54.767L197.967 53.3509C197.832 52.878 197.73 52.2715 197.66 51.5313C197.629 50.8 197.706 50.0525 197.889 49.289C198.22 47.9145 198.772 46.9925 199.547 46.5228C200.36 46.0619 201.277 45.9462 202.296 46.1756L212.235 48.4121C213.413 48.677 214.236 49.2045 214.708 49.9947C215.227 50.7555 215.349 51.7086 215.074 52.854L212.265 64.5366Z" fill="white"/>
<path d="M252.428 93.9159C252.003 93.748 251.37 93.4256 250.529 92.9488C249.721 92.4957 248.949 91.9959 248.214 91.4494C247.48 90.9028 246.874 90.3534 246.397 89.801C245.927 89.3036 245.611 88.7721 245.448 88.2065C245.285 87.641 245.304 87.0376 245.505 86.3965C245.705 85.7554 246.124 85.0298 246.761 84.2197L266.176 59.5431C266.577 59.7421 267.197 60.0801 268.038 60.5569C268.902 61.0026 269.686 61.4868 270.389 62.0096C271.124 62.5561 271.714 63.0937 272.159 63.6223C272.661 64.1435 272.993 64.6869 273.156 65.2525C273.319 65.818 273.3 66.4214 273.099 67.0625C272.899 67.7036 272.48 68.4291 271.842 69.2392L252.428 93.9159Z" fill="white"/>
</mask>
<g mask="url(#mask3_0_1)">
<path d="M252.428 93.9159C252.003 93.748 251.37 93.4256 250.529 92.9488C249.721 92.4957 248.949 91.9959 248.214 91.4494C247.48 90.9028 246.874 90.3534 246.397 89.801C245.927 89.3036 245.611 88.7721 245.448 88.2065C245.285 87.641 245.304 87.0376 245.505 86.3965C245.705 85.7554 246.124 85.0298 246.761 84.2197L266.176 59.5431C266.577 59.7421 267.197 60.0801 268.038 60.5569C268.902 61.0026 269.686 61.4868 270.389 62.0096C271.124 62.5561 271.714 63.0937 272.159 63.6223C272.661 64.1435 272.993 64.6869 273.156 65.2525C273.319 65.818 273.3 66.4214 273.099 67.0625C272.899 67.7036 272.48 68.4291 271.842 69.2392L252.428 93.9159Z" stroke="#22C55E" stroke-width="2"/>
</g>
</g>
<path d="M156.583 127.042L163.417 132.458C164.09 132.992 164.889 133.415 165.768 133.704C166.647 133.992 167.59 134.141 168.542 134.141C169.493 134.141 170.436 133.992 171.315 133.704C172.195 133.415 172.994 132.992 173.667 132.458C174.34 131.925 174.874 131.291 175.238 130.594C175.602 129.897 175.789 129.15 175.789 128.396C175.789 127.641 175.602 126.894 175.238 126.197C174.874 125.5 174.34 124.867 173.667 124.333" stroke="#FDE047" stroke-width="2" stroke-linecap="round" stroke-linejoin="round"/>
<path d="M166.833 118.917L175.375 125.688C176.734 126.765 178.578 127.37 180.5 127.37C182.422 127.37 184.266 126.765 185.625 125.688C186.984 124.61 187.748 123.149 187.748 121.625C187.748 120.101 186.984 118.64 185.625 117.563L172.368 107.054C170.446 105.533 167.841 104.678 165.125 104.678C162.409 104.678 159.804 105.533 157.882 107.054L154.875 109.438C153.516 110.515 151.672 111.12 149.75 111.12C147.828 111.12 145.984 110.515 144.625 109.438C143.266 108.36 142.502 106.899 142.502 105.375C142.502 103.851 143.266 102.39 144.625 101.313L154.226 93.7021C157.343 91.2379 161.407 89.6682 165.776 89.2414C170.145 88.8146 174.569 89.5552 178.347 91.3459L179.953 92.1042C181.408 92.8002 183.138 93.0416 184.805 92.7813L190.75 91.8334" stroke="#FDE047" stroke-width="2" stroke-linecap="round" stroke-linejoin="round"/>
<path d="M190.75 89.125L194.167 118.917H187.333" stroke="#FDE047" stroke-width="2" stroke-linecap="round" stroke-linejoin="round"/>
<path d="M129.25 89.125L125.833 118.917L148.042 136.521C149.401 137.598 151.244 138.204 153.167 138.204C155.089 138.204 156.932 137.598 158.292 136.521C159.651 135.443 160.414 133.982 160.414 132.458C160.414 130.935 159.651 129.473 158.292 128.396" stroke="#FDE047" stroke-width="2" stroke-linecap="round" stroke-linejoin="round"/>
<path d="M129.25 91.8333H156.583" stroke="#FDE047" stroke-width="2" stroke-linecap="round" stroke-linejoin="round"/>
<path d="M85.7337 143.261L83.7745 142.467C83.8869 141.857 83.8846 141.28 83.7676 140.736C83.656 140.194 83.4534 139.695 83.1599 139.239C82.8738 138.78 82.5131 138.377 82.0778 138.029C81.6425 137.681 81.1562 137.398 80.619 137.181C79.6395 136.784 78.6518 136.672 77.6562 136.845C76.6657 137.02 75.741 137.495 74.8821 138.269C74.0284 139.045 73.3179 140.134 72.7506 141.534C72.1834 142.935 71.9363 144.211 72.0095 145.363C72.088 146.516 72.422 147.501 73.0115 148.316C73.6063 149.133 74.3934 149.739 75.373 150.136C75.9102 150.354 76.4561 150.489 77.0109 150.542C77.5656 150.595 78.1044 150.559 78.6272 150.433C79.1574 150.305 79.6511 150.085 80.1082 149.773C80.5727 149.459 80.9759 149.046 81.3179 148.534L83.277 149.328C82.7947 150.095 82.2265 150.726 81.5723 151.221C80.9182 151.716 80.2087 152.076 79.4439 152.299C78.6811 152.518 77.8911 152.599 77.0736 152.544C76.2614 152.491 75.4471 152.299 74.6308 151.969C73.251 151.41 72.1604 150.576 71.3591 149.467C70.5577 148.358 70.1005 147.057 69.9876 145.565C69.8747 144.072 70.1638 142.473 70.8547 140.767C71.5457 139.06 72.4509 137.711 73.5703 136.717C74.6898 135.724 75.9231 135.108 77.2705 134.868C78.6178 134.629 79.9813 134.789 81.3612 135.348C82.1774 135.679 82.8957 136.107 83.516 136.634C84.1415 137.163 84.6512 137.774 85.045 138.467C85.4409 139.155 85.7015 139.904 85.8268 140.715C85.9542 141.52 85.9231 142.369 85.7337 143.261Z" fill="#EBEF0E"/>
<path d="M90.6801 157.55L88.5492 156.942L99.5004 141.915L101.599 142.514L102.974 161.057L100.843 160.449L99.8576 144.889L99.7264 144.851L90.6801 157.55ZM93.3372 151.218L101.926 153.668L101.412 155.471L92.8228 153.021L93.3372 151.218Z" fill="#EBEF0E"/>
<path d="M114.373 145.854L116.863 146.26L120.388 161.514L120.59 161.546L128.774 148.2L131.264 148.606L128.457 165.833L126.506 165.515L128.638 152.426L128.47 152.399L120.954 164.611L119.07 164.304L115.819 150.338L115.65 150.311L113.518 163.399L111.566 163.081L114.373 145.854Z" fill="#EBEF0E"/>
<path d="M138.614 166.751L139.484 149.318L150.005 149.844L149.911 151.716L141.501 151.296L141.207 157.187L149.073 157.579L148.979 159.452L141.114 159.06L140.818 164.984L149.364 165.411L149.271 167.283L138.614 166.751Z" fill="#EBEF0E"/>
<path d="M158.868 167.324L158.04 149.889L163.931 149.609C165.293 149.544 166.422 149.724 167.318 150.148C168.214 150.566 168.891 151.168 169.349 151.954C169.808 152.74 170.061 153.646 170.11 154.674C170.159 155.701 169.992 156.622 169.61 157.436C169.228 158.251 168.613 158.906 167.766 159.401C166.919 159.891 165.821 160.168 164.47 160.232L159.702 160.458L159.612 158.551L164.311 158.328C165.242 158.284 165.985 158.112 166.539 157.813C167.099 157.513 167.495 157.107 167.727 156.596C167.964 156.078 168.066 155.47 168.033 154.772C168 154.074 167.84 153.47 167.554 152.961C167.268 152.451 166.832 152.068 166.245 151.811C165.658 151.549 164.894 151.44 163.952 151.485L160.24 151.662L160.98 167.224L158.868 167.324ZM166.703 159.102L171.366 166.73L168.914 166.846L164.319 159.215L166.703 159.102Z" fill="#EBEF0E"/>
<path d="M193.322 154.997C193.605 156.816 193.521 158.439 193.07 159.866C192.62 161.293 191.877 162.455 190.844 163.352C189.81 164.249 188.558 164.812 187.087 165.041C185.616 165.27 184.252 165.114 182.995 164.574C181.738 164.033 180.678 163.152 179.815 161.929C178.952 160.706 178.379 159.185 178.096 157.366C177.813 155.547 177.897 153.924 178.347 152.497C178.798 151.07 179.54 149.908 180.573 149.011C181.607 148.114 182.859 147.551 184.33 147.322C185.801 147.093 187.165 147.249 188.422 147.79C189.679 148.33 190.739 149.212 191.602 150.434C192.466 151.657 193.039 153.178 193.322 154.997ZM191.301 155.311C191.068 153.818 190.622 152.597 189.963 151.647C189.309 150.696 188.517 150.023 187.587 149.627C186.663 149.231 185.678 149.114 184.634 149.276C183.59 149.439 182.685 149.85 181.919 150.509C181.159 151.168 180.609 152.05 180.27 153.155C179.935 154.26 179.885 155.558 180.117 157.052C180.349 158.545 180.792 159.767 181.446 160.718C182.106 161.667 182.898 162.341 183.822 162.737C184.752 163.133 185.739 163.25 186.783 163.087C187.828 162.925 188.73 162.514 189.49 161.855C190.255 161.196 190.805 160.314 191.139 159.209C191.479 158.104 191.533 156.805 191.301 155.311Z" fill="#EBEF0E"/>
<path d="M215.928 149.291C216.416 151.066 216.517 152.688 216.232 154.157C215.947 155.626 215.341 156.865 214.417 157.874C213.492 158.882 212.312 159.584 210.877 159.979C209.441 160.373 208.068 160.374 206.758 159.98C205.447 159.586 204.294 158.831 203.297 157.714C202.301 156.597 201.558 155.152 201.07 153.377C200.582 151.602 200.481 149.98 200.766 148.51C201.052 147.041 201.657 145.802 202.581 144.794C203.506 143.785 204.686 143.083 206.122 142.689C207.557 142.294 208.93 142.294 210.24 142.687C211.551 143.081 212.704 143.837 213.701 144.953C214.697 146.07 215.44 147.516 215.928 149.291ZM213.956 149.833C213.555 148.376 212.973 147.213 212.21 146.344C211.452 145.475 210.588 144.896 209.62 144.608C208.656 144.319 207.665 144.315 206.646 144.595C205.627 144.875 204.775 145.387 204.089 146.129C203.409 146.87 202.963 147.809 202.751 148.946C202.545 150.081 202.642 151.377 203.043 152.834C203.443 154.292 204.023 155.455 204.78 156.325C205.544 157.194 206.407 157.772 207.37 158.061C208.339 158.349 209.333 158.352 210.352 158.072C211.371 157.792 212.221 157.281 212.901 156.54C213.587 155.798 214.033 154.859 214.239 153.724C214.451 152.587 214.356 151.29 213.956 149.833Z" fill="#EBEF0E"/>
<path d="M233.659 133.284L240.172 149.478L238.274 150.241L224.336 141.075L224.178 141.139L229.292 153.853L227.331 154.642L220.818 138.448L222.716 137.685L236.698 146.87L236.856 146.806L231.73 134.06L233.659 133.284Z" fill="#EBEF0E"/>
</g>
<defs>
<filter id="filter0_d_0_1" x="32.5427" y="30.7104" width="244.723" height="77.9227" filterUnits="userSpaceOnUse" color-interpolation-filters="sRGB">
<feFlood flood-opacity="0" result="BackgroundImageFix"/>
<feColorMatrix in="SourceAlpha" type="matrix" values="0 0 0 0 0 0 0 0 0 0 0 0 0 0 0 0 0 0 127 0" result="hardAlpha"/>
<feOffset dy="4"/>
<feGaussianBlur stdDeviation="2"/>
<feComposite in2="hardAlpha" operator="out"/>
<feColorMatrix type="matrix" values="0 0 0 0 0 0 0 0 0 0 0 0 0 0 0 0 0 0 0.25 0"/>
<feBlend mode="normal" in2="BackgroundImageFix" result="effect1_dropShadow_0_1"/>
<feBlend mode="normal" in="SourceGraphic" in2="effect1_dropShadow_0_1" result="shape"/>
</filter>
<clipPath id="clip0_0_1">
<rect width="309" height="197" fill="white"/>
</clipPath>
</defs>
</svg>
