<svg width="283" height="182" viewBox="0 0 283 182" fill="none" xmlns="http://www.w3.org/2000/svg">
<ellipse cx="141.5" cy="91" rx="141.5" ry="91" fill="#4ED81E"/>
<ellipse cx="141.5" cy="91" rx="126.5" ry="77" fill="#DC2626"/>
<path d="M7.5 85L9.18386 89.4914H14.6329L10.2245 92.2672L11.9084 96.7586L7.5 93.9828L3.09161 96.7586L4.77547 92.2672L0.367076 89.4914H5.81614L7.5 85Z" fill="#FDE047"/>
<path d="M275.5 85L277.184 89.4914H282.633L278.225 92.2672L279.908 96.7586L275.5 93.9828L271.092 96.7586L272.775 92.2672L268.367 89.4914H273.816L275.5 85Z" fill="#FDD816"/>
<path d="M63.2399 50.4465L54.7077 56.1829L52.9442 53.5689C52.1212 52.349 51.4879 51.6454 51.0443 51.4581C50.6007 51.2708 50.1244 51.3483 49.6153 51.6906C49.0625 52.0623 48.7925 52.571 48.8052 53.2168C48.8326 53.8529 49.1548 54.6283 49.772 55.5432C50.5657 56.7196 51.3234 57.4979 52.045 57.8781C52.7523 58.2681 54.1028 58.405 56.0968 58.2888C61.8208 57.9657 65.738 58.2241 67.8483 59.064C69.9585 59.9039 72.1796 62.0521 74.5114 65.5084C76.2064 68.0208 77.1574 70.0729 77.3644 71.6648C77.5859 73.2469 77.1272 75.0118 75.9884 76.9597C74.8397 78.893 73.1452 80.6127 70.9049 82.119C68.4464 83.7719 66.0307 84.7205 63.658 84.9647C61.2998 85.1992 59.3666 84.7785 57.8584 83.7027C56.3502 82.6268 54.7045 80.7674 52.9213 78.1243L51.3635 75.8152L59.8956 70.0788L62.7908 74.3702C63.6824 75.6917 64.3719 76.4631 64.8594 76.6842C65.3615 76.8954 65.918 76.7958 66.529 76.385C67.14 75.9742 67.4293 75.4313 67.397 74.7565C67.3791 74.0718 67.0518 73.2575 66.4149 72.3136C65.0139 70.2369 63.8141 69.0697 62.8156 68.8122C61.8027 68.5644 59.6496 68.4604 56.3565 68.5002C53.0536 68.5254 50.8009 68.4461 49.5986 68.2624C48.3961 68.0787 47.1411 67.5504 45.8332 66.6776C44.54 65.795 43.2614 64.417 41.9975 62.5435C40.1751 59.8423 39.1845 57.6375 39.0257 55.9288C38.8814 54.2104 39.3451 52.4843 40.4168 50.7505C41.4788 49.0021 43.1008 47.3944 45.283 45.9273C47.6687 44.3232 49.9578 43.3436 52.15 42.9886C54.3568 42.6237 56.1261 42.8485 57.458 43.6629C58.7946 44.453 60.4084 46.2495 62.2993 49.0523L63.2399 50.4465Z" fill="#FCD34D"/>
<path d="M122.728 21L134.488 62.355L123.243 63.8094L121.712 56.3009L117.772 56.8105L118.104 64.4742L106.728 65.9455L106.839 23.0551L122.728 21ZM120.429 48.8662C119.252 44.1632 117.931 38.3402 116.463 31.3971C116.396 39.5979 116.465 45.583 116.672 49.3522L120.429 48.8662Z" fill="#FCD34D"/>
<path d="M193.214 42.824L182.392 40.4693L183.216 36.6971C183.735 34.3192 183.957 32.8085 183.883 32.1651C183.807 31.5214 183.385 31.1159 182.614 30.9481C181.945 30.8026 181.435 30.9603 181.083 31.4214C180.731 31.8826 180.324 33.1737 179.86 35.2949L175.507 55.2336C175.1 57.0983 174.951 58.3562 175.06 59.0071C175.172 59.6408 175.589 60.0361 176.309 60.1929C177.097 60.3643 177.701 60.1462 178.121 59.5388C178.558 58.935 178.988 57.6665 179.41 55.7333L180.485 50.8064L178.301 50.331L179.679 44.0184L192.351 46.7758L187.482 69.0753L180.67 67.593L180.318 64.3983C179.301 65.521 178.156 66.2844 176.884 66.6884C175.631 67.0789 174.242 67.1083 172.717 66.7765C170.901 66.3813 169.291 65.5738 167.888 64.3547C166.505 63.122 165.545 61.7662 165.006 60.287C164.468 58.8079 164.25 57.336 164.354 55.8713C164.463 54.3895 164.829 52.2203 165.453 49.3632L168.148 37.0203C169.014 33.0514 169.858 30.2154 170.678 28.5123C171.499 26.8094 173.083 25.4336 175.43 24.3853C177.798 23.3235 180.593 23.1432 183.815 23.8442C186.985 24.534 189.473 25.7565 191.28 27.5116C193.087 29.2667 194.112 31.1114 194.353 33.0455C194.599 34.9627 194.35 37.6234 193.606 41.0277L193.214 42.824Z" fill="#FCD34D"/>
<path d="M251 57.6906L223.31 90L214.894 82.8119L242.584 50.5025L251 57.6906Z" fill="#FCD34D"/>
<path d="M38.5862 125.257L35.4573 121.37L37.047 120.5L39.736 123.842L38.5862 125.257ZM41.2566 120.042L33.5833 123.292L32 121.325L44.3273 116.666L45.1944 117.744L38.019 128.803L36.4106 126.805L41.2566 120.042Z" fill="#FDE047"/>
<path d="M46.6966 136.816C46.1631 136.392 45.7316 135.904 45.4021 135.352C45.0912 134.798 44.8961 134.217 44.8166 133.607C44.7455 132.988 44.7984 132.373 44.9755 131.763C45.1526 131.153 45.4611 130.57 45.9012 130.015C46.333 129.471 46.8299 129.038 47.3918 128.717C47.962 128.385 48.5609 128.178 49.1884 128.096C49.8159 128.014 50.4387 128.057 51.0567 128.224C51.6935 128.388 52.2839 128.687 52.8278 129.119C53.5286 129.675 54.0357 130.283 54.349 130.941C54.6622 131.6 54.7879 132.28 54.7259 132.981L52.6967 133.315L52.4996 133.337L52.4488 133.143C52.5048 133.051 52.5556 132.955 52.6011 132.855C52.6653 132.752 52.6991 132.591 52.7025 132.372C52.6636 132.034 52.5489 131.738 52.3581 131.484C52.1861 131.228 51.9484 130.98 51.6451 130.739C51.394 130.539 51.1171 130.405 50.8144 130.335C50.5117 130.265 50.1926 130.259 49.857 130.317C49.5214 130.374 49.185 130.508 48.8479 130.718C48.5213 130.936 48.2044 131.239 47.8971 131.626C47.6314 131.961 47.4388 132.312 47.3192 132.677C47.2079 133.033 47.1612 133.371 47.1791 133.692C47.2158 134.012 47.3024 134.311 47.4391 134.59C47.5944 134.867 47.7924 135.101 48.033 135.292C48.2527 135.467 48.4827 135.607 48.7229 135.712C48.982 135.816 49.2607 135.883 49.5591 135.916C49.8762 135.946 50.2203 135.92 50.5912 135.84L50.6775 137.956C49.9312 138.08 49.2072 138.025 48.5055 137.792C47.8226 137.557 47.2196 137.231 46.6966 136.816Z" fill="#FDE047"/>
<path d="M59.8082 145.419C59.3659 145.17 59.0037 144.874 58.7215 144.531C58.451 144.195 58.2853 143.794 58.2243 143.331C58.1815 142.862 58.2591 142.315 58.4572 141.691C58.6553 141.066 59.0076 140.344 59.5142 139.525L63.0801 133.758L65.5166 134.74L65.6835 134.811L65.5929 135.013C65.5005 135.068 65.408 135.123 65.3157 135.179C65.2233 135.234 65.1155 135.357 64.9925 135.549L63.3582 137.964L63.4236 138.093L61.7804 140.687C61.3459 141.378 61.058 141.944 60.9167 142.386C60.7937 142.823 60.7768 143.166 60.8662 143.416C60.9622 143.654 61.1208 143.835 61.3419 143.96C61.7026 144.163 62.0711 144.271 62.4472 144.283C62.835 144.302 63.2067 144.282 63.5625 144.221L63.0873 146.047C62.5278 146.115 61.9752 146.103 61.4296 146.01C60.884 145.918 60.3435 145.721 59.8082 145.419ZM60.2556 134.652L66.6799 138.271L65.6623 139.998L59.238 136.379L60.2556 134.652Z" fill="#FDE047"/>
<path d="M69.0831 149.828L69.8505 147.976L71.9416 148.844L74.0059 143.863L72.0073 143.033L72.7671 141.2L77.1343 143.012L74.3102 149.827L76.2162 150.618L75.4488 152.47L69.0831 149.828ZM76.3838 141.16C75.989 140.996 75.7035 140.726 75.5271 140.349C75.3683 139.965 75.3656 139.587 75.5191 139.217C75.6828 138.822 75.9479 138.548 76.3144 138.397C76.6932 138.25 77.0924 138.264 77.5118 138.438C77.8942 138.597 78.1711 138.871 78.3423 139.26C78.5258 139.654 78.5408 140.037 78.3874 140.407C78.2339 140.778 77.9528 141.037 77.5442 141.186C77.153 141.327 76.7662 141.319 76.3838 141.16Z" fill="#FDE047"/>
<path d="M84.7753 155.67L84.2119 145.69L86.7606 146.468L86.9809 153.241L86.6743 153.147L88.5899 150.777C88.9733 150.251 89.3229 149.722 89.6386 149.189C89.9583 148.644 90.2125 148.107 90.4016 147.578L92.6629 148.267C92.4366 148.827 92.1259 149.389 91.7307 149.953C91.3356 150.517 90.9149 151.073 90.4686 151.622L86.7108 156.26L84.7753 155.67Z" fill="#FDE047"/>
<path d="M99.8334 159.835C99.1805 159.695 98.5958 159.46 98.0791 159.131C97.5654 158.788 97.143 158.369 96.812 157.874C96.4941 157.382 96.2807 156.817 96.1718 156.178C96.0629 155.54 96.0884 154.848 96.2482 154.103C96.4108 153.345 96.6675 152.69 97.0185 152.136C97.3853 151.573 97.8094 151.124 98.2908 150.79C98.7723 150.456 99.298 150.234 99.8679 150.124C100.451 150.017 101.049 150.029 101.663 150.161C102.198 150.276 102.68 150.482 103.108 150.779C103.552 151.066 103.916 151.438 104.201 151.895C104.498 152.356 104.691 152.889 104.779 153.496C104.881 154.106 104.853 154.776 104.696 155.508C104.665 155.652 104.627 155.828 104.582 156.037C104.537 156.246 104.493 156.421 104.449 156.562L98.5144 155.287C98.462 155.659 98.4717 155.996 98.5434 156.298C98.631 156.59 98.7596 156.85 98.9292 157.078C99.1148 157.296 99.3283 157.478 99.5698 157.626C99.8272 157.763 100.093 157.861 100.367 157.92C100.641 157.979 100.9 158.014 101.144 158.026C101.403 158.027 101.656 157.992 101.904 157.922C102.164 157.855 102.422 157.733 102.679 157.556L103.667 159.06C103.291 159.348 102.895 159.571 102.479 159.727C102.066 159.871 101.633 159.949 101.179 159.961C100.739 159.975 100.29 159.934 99.8334 159.835ZM98.9334 153.429L102.479 154.191C102.54 153.904 102.556 153.64 102.525 153.401C102.507 153.165 102.436 152.958 102.31 152.781C102.197 152.606 102.043 152.464 101.848 152.354C101.656 152.231 101.423 152.139 101.149 152.081C100.914 152.03 100.685 152.015 100.462 152.035C100.239 152.056 100.027 152.12 99.8266 152.227C99.639 152.337 99.4692 152.492 99.3171 152.692C99.1649 152.891 99.0371 153.137 98.9334 153.429Z" fill="#FDE047"/>
<path d="M127.058 163.57C126.219 163.515 125.427 163.342 124.683 163.052C123.952 162.763 123.364 162.349 122.918 161.81L124.273 159.83L124.383 159.677L124.575 159.81C124.596 159.905 124.622 160.007 124.655 160.117C124.689 160.213 124.788 160.34 124.951 160.498C125.256 160.746 125.597 160.962 125.973 161.148C126.363 161.321 126.777 161.429 127.216 161.471C127.509 161.49 127.778 161.481 128.021 161.443C128.265 161.406 128.476 161.34 128.657 161.244C128.838 161.136 128.981 160.991 129.087 160.81C129.192 160.63 129.253 160.413 129.27 160.16C129.279 160.026 129.268 159.892 129.236 159.756C129.219 159.607 129.169 159.463 129.084 159.324C129.013 159.185 128.888 159.043 128.711 158.897C128.547 158.739 128.337 158.571 128.081 158.394C127.825 158.216 127.503 158.027 127.115 157.828C126.275 157.371 125.614 156.939 125.132 156.532C124.664 156.113 124.338 155.676 124.154 155.222C123.971 154.754 123.898 154.227 123.937 153.64C123.977 153.027 124.187 152.492 124.565 152.034C124.957 151.565 125.469 151.21 126.1 150.97C126.732 150.717 127.428 150.616 128.188 150.666C128.735 150.702 129.23 150.795 129.675 150.945C130.134 151.095 130.555 151.304 130.939 151.57C131.323 151.837 131.67 152.161 131.98 152.543L130.35 154.123L130.221 154.255L130.07 154.105C130.064 153.997 130.05 153.896 130.03 153.801C130.01 153.692 129.932 153.553 129.796 153.384C129.57 153.154 129.326 152.998 129.064 152.913C128.803 152.816 128.499 152.756 128.152 152.733C127.899 152.716 127.671 152.735 127.466 152.788C127.263 152.828 127.084 152.897 126.931 152.994C126.778 153.078 126.657 153.183 126.569 153.312C126.493 153.441 126.451 153.578 126.441 153.725C126.432 153.858 126.437 153.986 126.456 154.108C126.475 154.23 126.527 154.354 126.612 154.48C126.698 154.606 126.823 154.741 126.987 154.886C127.166 155.018 127.39 155.174 127.659 155.352C127.942 155.532 128.296 155.736 128.723 155.965C129.329 156.313 129.836 156.648 130.243 156.969C130.664 157.278 130.991 157.594 131.224 157.918C131.472 158.229 131.636 158.574 131.718 158.955C131.802 159.322 131.828 159.732 131.798 160.185C131.757 160.812 131.558 161.395 131.201 161.934C130.859 162.461 130.342 162.882 129.652 163.198C128.962 163.515 128.098 163.638 127.058 163.57Z" fill="#FDE047"/>
<path d="M141.186 164C140.344 164.002 139.582 163.804 138.9 163.405C138.218 162.992 137.676 162.419 137.273 161.685C136.87 160.937 136.668 160.076 136.665 159.1C136.663 158.178 136.861 157.349 137.26 156.613C137.658 155.863 138.198 155.274 138.878 154.845C139.557 154.402 140.318 154.179 141.16 154.177C142.001 154.175 142.763 154.393 143.445 154.832C144.14 155.258 144.69 155.845 145.092 156.592C145.508 157.326 145.718 158.154 145.72 159.076C145.723 160.039 145.517 160.895 145.106 161.644C144.707 162.38 144.161 162.956 143.468 163.372C142.788 163.789 142.027 163.998 141.186 164ZM141.18 161.975C141.581 161.974 141.928 161.853 142.221 161.612C142.528 161.37 142.767 161.036 142.939 160.607C143.112 160.166 143.197 159.658 143.196 159.083C143.194 158.468 143.106 157.947 142.931 157.52C142.757 157.093 142.516 156.766 142.208 156.54C141.913 156.313 141.566 156.201 141.165 156.202C140.791 156.203 140.451 156.317 140.144 156.545C139.851 156.773 139.618 157.101 139.446 157.529C139.273 157.957 139.188 158.479 139.189 159.094C139.191 159.668 139.279 160.176 139.454 160.617C139.628 161.044 139.863 161.377 140.158 161.617C140.466 161.857 140.807 161.976 141.18 161.975Z" fill="#FDE047"/>
<path d="M151.298 163.541L151.156 161.542L153.754 161.357L153.083 151.899L150.605 152.075L150.463 150.075L155.499 149.717L156.312 161.175L158.869 160.994L159.011 162.993L151.298 163.541Z" fill="#FDE047"/>
<path d="M165.679 162.271L165.396 160.286L167.637 159.966L166.876 154.628L164.734 154.933L164.454 152.969L169.135 152.3L170.176 159.604L172.218 159.312L172.501 161.297L165.679 162.271ZM167.546 151.09C167.122 151.15 166.739 151.063 166.395 150.828C166.063 150.579 165.869 150.256 165.812 149.859C165.752 149.435 165.84 149.065 166.078 148.747C166.329 148.428 166.68 148.236 167.13 148.172C167.539 148.114 167.917 148.208 168.263 148.456C168.622 148.702 168.829 149.023 168.886 149.42C168.943 149.817 168.833 150.184 168.557 150.52C168.292 150.841 167.955 151.031 167.546 151.09Z" fill="#FDE047"/>
<path d="M182.42 159.635C181.899 159.75 181.388 159.76 180.888 159.665C180.385 159.557 179.914 159.34 179.472 159.013C179.031 158.686 178.646 158.244 178.318 157.687C177.988 157.117 177.734 156.433 177.559 155.637C177.386 154.854 177.325 154.142 177.375 153.502C177.426 152.861 177.577 152.308 177.83 151.841C178.08 151.362 178.418 150.972 178.844 150.673C179.268 150.36 179.753 150.144 180.301 150.023C180.575 149.962 180.842 149.931 181.101 149.928C181.373 149.923 181.634 149.961 181.885 150.043C182.136 150.124 182.36 150.273 182.558 150.49L181.518 145.772L184.178 145.184L184.222 145.38C184.173 145.473 184.147 145.568 184.141 145.665C184.135 145.762 184.163 145.92 184.225 146.139L186.633 157.247C186.676 157.443 186.732 157.636 186.801 157.826C186.868 158.003 186.968 158.179 187.102 158.355L184.657 158.895C184.563 158.779 184.495 158.684 184.451 158.612C184.407 158.539 184.377 158.464 184.36 158.385C184.343 158.307 184.32 158.203 184.291 158.072C184.189 158.355 184.046 158.605 183.862 158.824C183.674 159.03 183.46 159.2 183.216 159.336C182.972 159.472 182.707 159.572 182.42 159.635ZM182.414 157.563C182.676 157.505 182.892 157.403 183.065 157.255C183.247 157.091 183.38 156.884 183.461 156.634C183.556 156.38 183.595 156.063 183.58 155.684C183.565 155.304 183.501 154.859 183.389 154.35C183.239 153.672 183.059 153.137 182.85 152.745C182.638 152.34 182.386 152.067 182.095 151.926C181.817 151.782 181.489 151.752 181.111 151.835C180.837 151.896 180.605 152.022 180.415 152.215C180.222 152.394 180.075 152.625 179.973 152.908C179.884 153.188 179.841 153.519 179.843 153.901C179.843 154.271 179.891 154.678 179.989 155.121C180.118 155.709 180.316 156.199 180.58 156.592C180.858 156.983 181.158 157.258 181.48 157.42C181.803 157.581 182.114 157.629 182.414 157.563Z" fill="#FDE047"/>
<path d="M195.579 156.219C194.61 156.521 193.779 156.527 193.088 156.238C192.394 155.936 191.929 155.409 191.695 154.656C191.544 154.171 191.51 153.699 191.591 153.24C191.681 152.764 191.889 152.308 192.215 151.87C192.553 151.429 193.022 151.025 193.621 150.656C194.216 150.275 194.947 149.95 195.814 149.681C195.891 149.657 195.995 149.631 196.126 149.605C196.253 149.565 196.394 149.521 196.547 149.474C196.7 149.426 196.843 149.389 196.974 149.362L197.543 150.99C197.436 151.01 197.3 151.045 197.135 151.096C196.982 151.144 196.822 151.194 196.657 151.245C196.491 151.296 196.357 151.338 196.255 151.37C195.719 151.536 195.291 151.712 194.97 151.895C194.658 152.062 194.42 152.241 194.256 152.432C194.104 152.619 194.016 152.808 193.991 152.997C193.966 153.187 193.983 153.378 194.043 153.569C194.094 153.735 194.168 153.88 194.262 154.005C194.366 154.112 194.48 154.189 194.606 154.234C194.728 154.266 194.864 154.279 195.017 154.274C195.182 154.265 195.347 154.234 195.513 154.183C195.857 154.076 196.139 153.925 196.359 153.731C196.578 153.537 196.733 153.292 196.823 152.998C196.923 152.688 196.951 152.329 196.909 151.922C196.875 151.499 196.775 151.019 196.609 150.483C196.391 149.781 196.155 149.267 195.899 148.94C195.644 148.614 195.367 148.42 195.068 148.359C194.769 148.298 194.429 148.327 194.046 148.446C193.651 148.569 193.294 148.75 192.977 148.988C192.668 149.21 192.393 149.562 192.151 150.043L190.347 149.029C190.728 148.365 191.199 147.834 191.761 147.435C192.335 147.033 192.935 146.734 193.559 146.54C194.108 146.37 194.644 146.273 195.168 146.25C195.705 146.223 196.204 146.298 196.666 146.477C197.135 146.639 197.558 146.941 197.933 147.384C198.305 147.814 198.607 148.406 198.841 149.159L200.482 154.443L197.995 155.216L197.733 154.374C197.627 154.617 197.506 154.836 197.371 155.032C197.249 155.224 197.099 155.397 196.923 155.549C196.743 155.689 196.544 155.814 196.326 155.924C196.109 156.034 195.859 156.132 195.579 156.219Z" fill="#FDE047"/>
<path d="M203.318 143.416L205.729 142.379L206.739 144.781L206.426 144.763C206.305 144.379 206.261 144.005 206.294 143.642C206.321 143.267 206.41 142.915 206.561 142.589C206.724 142.257 206.929 141.972 207.176 141.735C207.429 141.481 207.716 141.285 208.035 141.147C208.526 140.936 209.002 140.826 209.463 140.817C209.925 140.808 210.394 140.904 210.873 141.105L210.752 143.514L210.76 143.685L210.545 143.69C210.466 143.608 210.384 143.519 210.3 143.425C210.227 143.325 210.093 143.23 209.894 143.141C209.669 143.092 209.441 143.067 209.208 143.065C208.975 143.064 208.741 143.113 208.508 143.213C208.214 143.34 207.959 143.508 207.743 143.717C207.534 143.908 207.381 144.142 207.281 144.418C207.181 144.693 207.142 145.008 207.163 145.363C207.18 145.705 207.28 146.091 207.464 146.521L209.394 151.015L207.02 152.036L203.318 143.416Z" fill="#FDE047"/>
<path d="M220.323 145.875L219.319 144.14L221.278 143.005L218.579 138.338L216.706 139.422L215.713 137.705L219.804 135.335L223.498 141.72L225.283 140.685L226.287 142.42L220.323 145.875ZM217.878 134.806C217.508 135.02 217.121 135.083 216.714 134.994C216.313 134.886 216.011 134.66 215.811 134.313C215.597 133.942 215.541 133.566 215.643 133.182C215.756 132.792 216.01 132.483 216.403 132.255C216.761 132.048 217.147 131.994 217.56 132.095C217.985 132.189 218.297 132.409 218.498 132.756C218.699 133.103 218.734 133.484 218.604 133.899C218.478 134.296 218.236 134.598 217.878 134.806Z" fill="#FDE047"/>
<path d="M236.752 135.066C236.36 135.388 235.953 135.619 235.531 135.758C235.12 135.888 234.687 135.898 234.233 135.787C233.781 135.658 233.3 135.387 232.79 134.976C232.28 134.565 231.735 133.975 231.155 133.206L227.074 127.792L228.87 125.875L228.997 125.745L229.152 125.902C229.171 126.008 229.188 126.115 229.206 126.221C229.225 126.327 229.3 126.473 229.434 126.657L231.092 129.055L231.236 129.041L233.058 131.513C233.544 132.168 233.968 132.642 234.328 132.934C234.69 133.206 235.004 133.346 235.269 133.353C235.525 133.35 235.752 133.268 235.948 133.107C236.267 132.844 236.502 132.539 236.649 132.193C236.808 131.838 236.923 131.484 236.995 131.13L238.524 132.234C238.385 132.78 238.174 133.292 237.89 133.767C237.606 134.243 237.227 134.676 236.752 135.066ZM226.884 130.751L232.581 126.068L233.821 127.642L228.125 132.325L226.884 130.751Z" fill="#FDE047"/>
<path d="M248.319 128.237C248.047 128.585 247.742 128.846 247.402 129.021C247.072 129.205 246.682 129.358 246.231 129.48L245.371 127.715L245.282 127.569L245.456 127.476C245.562 127.492 245.669 127.507 245.775 127.522C245.892 127.546 246.061 127.526 246.282 127.46C246.373 127.43 246.462 127.381 246.549 127.313C246.636 127.245 246.716 127.164 246.79 127.069C246.938 126.879 247.008 126.67 246.998 126.443C247.008 126.213 246.947 125.954 246.817 125.666C246.694 125.367 246.498 125.01 246.228 124.596L242.926 119.347C242.607 118.844 242.285 118.389 241.958 117.981C241.64 117.564 241.27 117.181 240.846 116.833L242.276 115C242.733 115.391 243.157 115.891 243.546 116.5C243.924 117.101 244.286 117.68 244.631 118.237L248.144 123.931C248.725 124.858 249.01 125.666 249 126.353C248.998 127.029 248.77 127.658 248.319 128.237ZM236.927 121.859L238.48 119.868L245.584 122.033L246.831 124.736L236.927 121.859Z" fill="#FDE047"/>
<path d="M141.042 114.958L145.958 119.542C146.443 119.993 147.017 120.351 147.65 120.595C148.283 120.84 148.961 120.966 149.646 120.966C150.331 120.966 151.009 120.84 151.642 120.595C152.274 120.351 152.849 119.993 153.333 119.542C153.818 119.09 154.202 118.554 154.464 117.965C154.726 117.375 154.861 116.743 154.861 116.104C154.861 115.466 154.726 114.834 154.464 114.244C154.202 113.654 153.818 113.118 153.333 112.667" stroke="#FDE047" stroke-width="2.29167" stroke-linecap="round" stroke-linejoin="round"/>
<path d="M148.417 108.083L154.563 113.812C155.54 114.724 156.867 115.236 158.25 115.236C159.633 115.236 160.96 114.724 161.938 113.812C162.915 112.901 163.465 111.664 163.465 110.375C163.465 109.086 162.915 107.849 161.938 106.937L152.399 98.0458C151.016 96.7584 149.142 96.0352 147.188 96.0352C145.233 96.0352 143.359 96.7584 141.976 98.0458L139.813 100.062C138.835 100.974 137.508 101.486 136.125 101.486C134.742 101.486 133.415 100.974 132.438 100.062C131.46 99.1508 130.91 97.9143 130.91 96.625C130.91 95.3357 131.46 94.0992 132.438 93.1875L139.345 86.7479C141.588 84.6628 144.513 83.3346 147.656 82.9735C150.8 82.6124 153.983 83.239 156.701 84.7542L157.857 85.3958C158.903 85.9848 160.148 86.189 161.348 85.9687L165.625 85.1667" stroke="#FDE047" stroke-width="2.29167" stroke-linecap="round" stroke-linejoin="round"/>
<path d="M165.625 82.875L168.083 108.083H163.167" stroke="#FDE047" stroke-width="2.29167" stroke-linecap="round" stroke-linejoin="round"/>
<path d="M121.375 82.875L118.917 108.083L134.896 122.979C135.874 123.891 137.2 124.403 138.583 124.403C139.966 124.403 141.293 123.891 142.271 122.979C143.249 122.067 143.798 120.831 143.798 119.542C143.798 118.252 143.249 117.016 142.271 116.104" stroke="#FDE047" stroke-width="2.29167" stroke-linecap="round" stroke-linejoin="round"/>
<path d="M121.375 85.1667H141.042" stroke="#FDE047" stroke-width="2.29167" stroke-linecap="round" stroke-linejoin="round"/>
</svg>
