<svg width="50" height="50" viewBox="0 0 50 50" fill="none" xmlns="http://www.w3.org/2000/svg">
<mask id="path-1-inside-1_0_1" fill="white">
<path fill-rule="evenodd" clip-rule="evenodd" d="M10 0C4.47715 0 0 4.47715 0 10V40C0 45.5228 4.47715 50 10 50H40C45.5228 50 50 45.5228 50 40V10C50 4.47715 45.5228 0 40 0H10ZM12.374 32.6263L31.77 32.66C32.7967 32.66 33.5783 32.4267 34.115 31.96C34.675 31.47 34.955 30.6883 34.955 29.615C34.955 28.5417 34.675 27.7717 34.115 27.305C33.5783 26.815 32.7967 26.57 31.77 26.57H19.24C16.65 26.57 14.6317 25.9517 13.185 24.715C11.7617 23.455 11.05 21.6117 11.05 19.185C11.05 16.7583 11.7617 14.9267 13.185 13.69C14.6317 12.43 16.65 11.8 19.24 11.8H38.181H38.91V12.529V15.621V16.3495V16.35L38.181 16.3487L19.835 16.315C18.8317 16.315 18.05 16.5483 17.49 17.015C16.93 17.4583 16.65 18.1817 16.65 19.185C16.65 20.1883 16.93 20.9233 17.49 21.39C18.05 21.8333 18.8317 22.055 19.835 22.055H32.365C34.955 22.055 36.9617 22.6967 38.385 23.98C39.8317 25.24 40.555 27.1183 40.555 29.615C40.555 32.0883 39.8317 33.9667 38.385 35.25C36.9617 36.5333 34.955 37.175 32.365 37.175H12.374H11.645V36.446V33.354V32.625L12.374 32.6263ZM35.684 29.615C35.684 28.4365 35.3777 27.4166 34.5945 26.7557C33.8779 26.1084 32.8973 25.841 31.77 25.841H19.24C16.764 25.841 14.937 25.2511 13.6635 24.165C12.4404 23.0796 11.779 21.4618 11.779 19.185C11.779 16.9046 12.4423 15.301 13.6631 14.2403L13.6638 14.2397C14.9374 13.1305 16.7639 12.529 19.24 12.529H38.181V15.6197L19.8363 15.586H19.835C18.7285 15.586 17.7623 15.8426 17.0303 16.4492C16.238 17.0808 15.921 18.0573 15.921 19.185C15.921 20.319 16.2409 21.298 17.0233 21.95L17.0303 21.9559L17.0375 21.9616C17.7695 22.5411 18.7326 22.784 19.835 22.784H32.365C34.8388 22.784 36.6485 23.3958 37.8968 24.5214L37.8968 24.5215L37.9062 24.5297C39.1491 25.6123 39.826 27.2614 39.826 29.615C39.826 31.942 39.1508 33.5962 37.9012 34.7046L37.8968 34.7086C36.6485 35.8342 34.8388 36.446 32.365 36.446H12.374V33.3553L31.7687 33.389H31.77C32.8958 33.389 33.8758 33.1341 34.5934 32.5101L34.595 32.5086C35.3731 31.8278 35.684 30.8032 35.684 29.615Z"/>
</mask>
<path fill-rule="evenodd" clip-rule="evenodd" d="M10 0C4.47715 0 0 4.47715 0 10V40C0 45.5228 4.47715 50 10 50H40C45.5228 50 50 45.5228 50 40V10C50 4.47715 45.5228 0 40 0H10ZM12.374 32.6263L31.77 32.66C32.7967 32.66 33.5783 32.4267 34.115 31.96C34.675 31.47 34.955 30.6883 34.955 29.615C34.955 28.5417 34.675 27.7717 34.115 27.305C33.5783 26.815 32.7967 26.57 31.77 26.57H19.24C16.65 26.57 14.6317 25.9517 13.185 24.715C11.7617 23.455 11.05 21.6117 11.05 19.185C11.05 16.7583 11.7617 14.9267 13.185 13.69C14.6317 12.43 16.65 11.8 19.24 11.8H38.181H38.91V12.529V15.621V16.3495V16.35L38.181 16.3487L19.835 16.315C18.8317 16.315 18.05 16.5483 17.49 17.015C16.93 17.4583 16.65 18.1817 16.65 19.185C16.65 20.1883 16.93 20.9233 17.49 21.39C18.05 21.8333 18.8317 22.055 19.835 22.055H32.365C34.955 22.055 36.9617 22.6967 38.385 23.98C39.8317 25.24 40.555 27.1183 40.555 29.615C40.555 32.0883 39.8317 33.9667 38.385 35.25C36.9617 36.5333 34.955 37.175 32.365 37.175H12.374H11.645V36.446V33.354V32.625L12.374 32.6263ZM35.684 29.615C35.684 28.4365 35.3777 27.4166 34.5945 26.7557C33.8779 26.1084 32.8973 25.841 31.77 25.841H19.24C16.764 25.841 14.937 25.2511 13.6635 24.165C12.4404 23.0796 11.779 21.4618 11.779 19.185C11.779 16.9046 12.4423 15.301 13.6631 14.2403L13.6638 14.2397C14.9374 13.1305 16.7639 12.529 19.24 12.529H38.181V15.6197L19.8363 15.586H19.835C18.7285 15.586 17.7623 15.8426 17.0303 16.4492C16.238 17.0808 15.921 18.0573 15.921 19.185C15.921 20.319 16.2409 21.298 17.0233 21.95L17.0303 21.9559L17.0375 21.9616C17.7695 22.5411 18.7326 22.784 19.835 22.784H32.365C34.8388 22.784 36.6485 23.3958 37.8968 24.5214L37.8968 24.5215L37.9062 24.5297C39.1491 25.6123 39.826 27.2614 39.826 29.615C39.826 31.942 39.1508 33.5962 37.9012 34.7046L37.8968 34.7086C36.6485 35.8342 34.8388 36.446 32.365 36.446H12.374V33.3553L31.7687 33.389H31.77C32.8958 33.389 33.8758 33.1341 34.5934 32.5101L34.595 32.5086C35.3731 31.8278 35.684 30.8032 35.684 29.615Z" fill="#0F7C9E"/>
<path d="M31.77 32.66L31.7665 34.66H31.77V32.66ZM12.374 32.6263L12.3775 30.6263H12.3775L12.374 32.6263ZM34.115 31.96L35.4274 33.4692L35.432 33.4652L34.115 31.96ZM34.115 27.305L32.7665 28.782L32.7999 28.8125L32.8346 28.8414L34.115 27.305ZM13.185 24.715L11.8593 26.2125L11.8723 26.224L11.8854 26.2352L13.185 24.715ZM13.185 13.69L14.4967 15.1997L14.4986 15.1982L13.185 13.69ZM38.91 11.8H40.91V9.8H38.91V11.8ZM38.91 16.35L38.9063 18.35L40.91 18.3537V16.35H38.91ZM38.181 16.3487L38.1847 14.3487H38.1847L38.181 16.3487ZM19.835 16.315L19.8387 14.315H19.835V16.315ZM17.49 17.015L18.7314 18.5831L18.7511 18.5675L18.7704 18.5514L17.49 17.015ZM17.49 21.39L16.2096 22.9264L16.2289 22.9425L16.2486 22.9581L17.49 21.39ZM38.385 23.98L37.0457 25.4654L37.0585 25.4769L37.0714 25.4882L38.385 23.98ZM38.385 35.25L37.0578 33.7539L37.0517 33.7592L37.0457 33.7646L38.385 35.25ZM11.645 37.175H9.645V39.175H11.645V37.175ZM11.645 32.625L11.6485 30.625L9.645 30.6215V32.625H11.645ZM34.5945 26.7557L33.2539 28.2398L33.2789 28.2625L33.3047 28.2842L34.5945 26.7557ZM13.6635 24.165L12.3361 25.6609L12.3507 25.674L12.3657 25.6867L13.6635 24.165ZM13.6631 14.2403L14.9749 15.75L14.9774 15.7479L13.6631 14.2403ZM13.6638 14.2397L12.3502 12.7316L12.3496 12.7322L13.6638 14.2397ZM38.181 12.529H40.181V10.529H38.181V12.529ZM38.181 15.6197L38.1773 17.6197L40.181 17.6233V15.6197H38.181ZM19.8363 15.586L19.84 13.586H19.8363V15.586ZM17.0303 16.4492L18.277 18.0131L18.2918 18.0013L18.3063 17.9892L17.0303 16.4492ZM17.0233 21.95L18.3037 20.4136L18.3037 20.4136L17.0233 21.95ZM17.0303 21.9559L15.7499 23.4923L15.7693 23.5084L15.789 23.5241L17.0303 21.9559ZM17.0375 21.9616L18.2789 20.3935L18.2788 20.3934L17.0375 21.9616ZM37.8968 24.5214L39.4153 25.823L40.6847 24.3421L39.2361 23.036L37.8968 24.5214ZM37.8968 24.5215L36.3783 23.2199L35.087 24.7263L36.5831 26.0296L37.8968 24.5215ZM37.9062 24.5297L36.5925 26.0378L36.5926 26.0379L37.9062 24.5297ZM37.9012 34.7046L36.574 33.2085L36.568 33.2138L36.5621 33.2191L37.9012 34.7046ZM37.8968 34.7086L36.5577 33.2231L36.5576 33.2232L37.8968 34.7086ZM12.374 36.446H10.374V38.446H12.374V36.446ZM12.374 33.3553L12.3775 31.3553L10.374 31.3518V33.3553H12.374ZM31.7687 33.389L31.7653 35.389H31.7687V33.389ZM34.5934 32.5101L35.9057 34.0193L35.9111 34.0146L34.5934 32.5101ZM34.595 32.5086L33.278 31.0035L33.2773 31.0041L34.595 32.5086ZM2 10C2 5.58172 5.58172 2 10 2V-2C3.37258 -2 -2 3.37258 -2 10H2ZM2 40V10H-2V40H2ZM10 48C5.58172 48 2 44.4183 2 40H-2C-2 46.6274 3.37258 52 10 52V48ZM40 48H10V52H40V48ZM48 40C48 44.4183 44.4183 48 40 48V52C46.6274 52 52 46.6274 52 40H48ZM48 10V40H52V10H48ZM40 2C44.4183 2 48 5.58172 48 10H52C52 3.37258 46.6274 -2 40 -2V2ZM10 2H40V-2H10V2ZM31.7735 30.66L12.3775 30.6263L12.3705 34.6263L31.7665 34.66L31.7735 30.66ZM32.8026 30.4508C32.7623 30.4859 32.5247 30.66 31.77 30.66V34.66C33.0687 34.66 34.3944 34.3674 35.4274 33.4692L32.8026 30.4508ZM32.955 29.615C32.955 29.9856 32.9057 30.2103 32.8622 30.3318C32.8414 30.3899 32.823 30.4214 32.8137 30.4355C32.805 30.4486 32.8 30.4531 32.798 30.4548L35.432 33.4652C36.5903 32.4517 36.955 31.0035 36.955 29.615H32.955ZM32.8346 28.8414C32.8106 28.8214 32.8309 28.8212 32.8654 28.916C32.9053 29.0258 32.955 29.2431 32.955 29.615H36.955C36.955 28.2356 36.5938 26.7672 35.3954 25.7686L32.8346 28.8414ZM31.77 28.57C32.5032 28.57 32.7262 28.7452 32.7665 28.782L35.4635 25.828C34.4305 24.8848 33.0902 24.57 31.77 24.57V28.57ZM19.24 28.57H31.77V24.57H19.24V28.57ZM11.8854 26.2352C13.8067 27.8776 16.3459 28.57 19.24 28.57V24.57C16.9541 24.57 15.4566 24.0257 14.4846 23.1948L11.8854 26.2352ZM9.05 19.185C9.05 22.0149 9.89482 24.4735 11.8593 26.2125L14.5107 23.2175C13.6285 22.4365 13.05 21.2084 13.05 19.185H9.05ZM11.8733 12.1803C9.8943 13.8997 9.05 16.357 9.05 19.185H13.05C13.05 17.1596 13.629 15.9537 14.4967 15.1997L11.8733 12.1803ZM19.24 9.8C16.3375 9.8 13.7929 10.5083 11.8714 12.1818L14.4986 15.1982C15.4704 14.3517 16.9625 13.8 19.24 13.8V9.8ZM38.181 9.8H19.24V13.8H38.181V9.8ZM38.91 9.8H38.181V13.8H38.91V9.8ZM40.91 12.529V11.8H36.91V12.529H40.91ZM40.91 15.621V12.529H36.91V15.621H40.91ZM40.91 16.3495V15.621H36.91V16.3495H40.91ZM40.91 16.35V16.3495H36.91V16.35H40.91ZM38.1773 18.3487L38.9063 18.35L38.9137 14.35L38.1847 14.3487L38.1773 18.3487ZM19.8313 18.315L38.1773 18.3487L38.1847 14.3487L19.8387 14.315L19.8313 18.315ZM18.7704 18.5514C18.8561 18.48 19.1243 18.315 19.835 18.315V14.315C18.539 14.315 17.2439 14.6166 16.2096 15.4786L18.7704 18.5514ZM18.65 19.185C18.65 18.8613 18.6962 18.6868 18.7251 18.612C18.7478 18.5534 18.7549 18.5645 18.7314 18.5831L16.2486 15.4469C15.0368 16.4063 14.65 17.8311 14.65 19.185H18.65ZM18.7704 19.8536C18.7676 19.8512 18.7656 19.8493 18.7617 19.8438C18.7574 19.8377 18.7447 19.8181 18.729 19.7768C18.6958 19.6897 18.65 19.5074 18.65 19.185H14.65C14.65 20.5468 15.0395 21.9514 16.2096 22.9264L18.7704 19.8536ZM19.835 20.055C19.1034 20.055 18.8196 19.8917 18.7314 19.8219L16.2486 22.9581C17.2804 23.775 18.56 24.055 19.835 24.055V20.055ZM32.365 20.055H19.835V24.055H32.365V20.055ZM39.7243 22.4946C37.821 20.7785 35.2737 20.055 32.365 20.055V24.055C34.6363 24.055 36.1024 24.6148 37.0457 25.4654L39.7243 22.4946ZM42.555 29.615C42.555 26.7257 41.7042 24.2187 39.6986 22.4718L37.0714 25.4882C37.9591 26.2613 38.555 27.5109 38.555 29.615H42.555ZM39.7122 36.7461C41.6996 34.9831 42.555 32.4898 42.555 29.615H38.555C38.555 31.6869 37.9637 32.9502 37.0578 33.7539L39.7122 36.7461ZM32.365 39.175C35.2737 39.175 37.821 38.4515 39.7243 36.7354L37.0457 33.7646C36.1024 34.6152 34.6363 35.175 32.365 35.175V39.175ZM12.374 39.175H32.365V35.175H12.374V39.175ZM11.645 39.175H12.374V35.175H11.645V39.175ZM9.645 36.446V37.175H13.645V36.446H9.645ZM9.645 33.354V36.446H13.645V33.354H9.645ZM9.645 32.625V33.354H13.645V32.625H9.645ZM12.3775 30.6263L11.6485 30.625L11.6415 34.625L12.3705 34.6263L12.3775 30.6263ZM33.3047 28.2842C33.456 28.4119 33.684 28.7374 33.684 29.615H37.684C37.684 28.1356 37.2995 26.4213 35.8843 25.2272L33.3047 28.2842ZM31.77 27.841C32.6069 27.841 33.0329 28.0402 33.2539 28.2398L35.9351 25.2715C34.7229 24.1766 33.1877 23.841 31.77 23.841V27.841ZM19.24 27.841H31.77V23.841H19.24V27.841ZM12.3657 25.6867C14.1131 27.1771 16.4597 27.841 19.24 27.841V23.841C17.0683 23.841 15.7609 23.3252 14.9614 22.6433L12.3657 25.6867ZM9.779 19.185C9.779 21.8656 10.5739 24.0972 12.3361 25.6609L14.991 22.6691C14.307 22.0621 13.779 21.0579 13.779 19.185H9.779ZM12.3514 12.7306C10.5758 14.2733 9.779 16.5019 9.779 19.185H13.779C13.779 17.3073 14.3089 16.3287 14.9749 15.75L12.3514 12.7306ZM12.3496 12.7322L12.3489 12.7327L14.9774 15.7479L14.978 15.7473L12.3496 12.7322ZM19.24 10.529C16.4508 10.529 14.0983 11.2091 12.3502 12.7316L14.9774 15.7479C15.7765 15.0519 17.077 14.529 19.24 14.529V10.529ZM38.181 10.529H19.24V14.529H38.181V10.529ZM40.181 15.6197V12.529H36.181V15.6197H40.181ZM19.8327 17.586L38.1773 17.6197L38.1847 13.6197L19.84 13.586L19.8327 17.586ZM19.835 17.586H19.8363V13.586H19.835V17.586ZM18.3063 17.9892C18.5645 17.7753 19.0192 17.586 19.835 17.586V13.586C18.4378 13.586 16.9601 13.9099 15.7542 14.9092L18.3063 17.9892ZM17.921 19.185C17.921 18.4027 18.1343 18.1268 18.277 18.0131L15.7835 14.8853C14.3417 16.0348 13.921 17.7119 13.921 19.185H17.921ZM18.3037 20.4136C18.1332 20.2715 17.921 19.9638 17.921 19.185H13.921C13.921 20.6742 14.3486 22.3246 15.7429 23.4865L18.3037 20.4136ZM18.3107 20.4195L18.3037 20.4136L15.7429 23.4864L15.7499 23.4923L18.3107 20.4195ZM18.2788 20.3934L18.2716 20.3877L15.789 23.5241L15.7962 23.5298L18.2788 20.3934ZM19.835 20.784C19.0035 20.784 18.5386 20.599 18.2789 20.3935L15.7961 23.5297C17.0004 24.4831 18.4618 24.784 19.835 24.784V20.784ZM32.365 20.784H19.835V24.784H32.365V20.784ZM39.2361 23.036C37.5081 21.478 35.1582 20.784 32.365 20.784V24.784C34.5195 24.784 35.7888 25.3136 36.5576 26.0068L39.2361 23.036ZM39.4153 25.8231L39.4153 25.823L36.3783 23.2198L36.3783 23.2199L39.4153 25.8231ZM39.2199 23.0217L39.2104 23.0134L36.5831 26.0296L36.5925 26.0378L39.2199 23.0217ZM41.826 29.615C41.826 26.8674 41.0208 24.5902 39.2198 23.0216L36.5926 26.0379C37.2774 26.6343 37.826 27.6554 37.826 29.615H41.826ZM39.2284 36.2008C41.018 34.6133 41.826 32.3447 41.826 29.615H37.826C37.826 31.5393 37.2836 32.579 36.574 33.2085L39.2284 36.2008ZM39.236 36.1941L39.2404 36.1901L36.5621 33.2191L36.5577 33.2231L39.236 36.1941ZM32.365 38.446C35.1582 38.446 37.5081 37.752 39.2361 36.194L36.5576 33.2232C35.7888 33.9164 34.5195 34.446 32.365 34.446V38.446ZM12.374 38.446H32.365V34.446H12.374V38.446ZM10.374 33.3553V36.446H14.374V33.3553H10.374ZM31.7722 31.389L12.3775 31.3553L12.3705 35.3553L31.7653 35.389L31.7722 31.389ZM31.77 31.389H31.7687V35.389H31.77V31.389ZM33.281 31.0009C33.0604 31.1928 32.625 31.389 31.77 31.389V35.389C33.1666 35.389 34.6912 35.0754 35.9057 34.0193L33.281 31.0009ZM33.2773 31.0041L33.2756 31.0056L35.9111 34.0146L35.9128 34.0131L33.2773 31.0041ZM33.684 29.615C33.684 30.491 33.4563 30.8475 33.278 31.0035L35.9121 34.0138C37.2899 32.8082 37.684 31.1154 37.684 29.615H33.684Z" fill="white" fill-opacity="0.9" mask="url(#path-1-inside-1_0_1)"/>
</svg>
